<?xml version="1.0" encoding="UTF-8" standalone="no"?>
<svg width="192px" height="168px" viewBox="0 0 964 861" version="1.1" xmlns="http://www.w3.org/2000/svg" xmlns:xlink="http://www.w3.org/1999/xlink" xmlns:sketch="http://www.bohemiancoding.com/sketch/ns">
    <title>Smileys</title>
    <description>Created with Sketch (http://www.bohemiancoding.com/sketch)</description>
    <defs>
        <path id="path-1" d="M78.5,153.097649 C78.5,153.097649 148,99.883792 148,61.5 C148,47.2209961 143.117188,12.5312501 111.707031,12.5312501 C80.296875,12.5312501 78.5,35.3281251 78.5,35.3281251 C78.5,35.3281251 72.5546875,12.531255 44.5273438,12.5312501 C16.5,12.5312457 9,48.0096661 9,61.5 C9,99.883792 78.5,153.097649 78.5,153.097649 Z"></path>
        <path id="path-2" d="M78.5,323.097649 C78.5,323.097649 148,269.883792 148,231.5 C148,217.220996 143.117188,182.53125 111.707031,182.53125 C98.5075714,182.53125 90.5375933,186.557006 85.7328618,191.225039 C84.1720677,192.741427 99.7005543,213.495638 100.1875,227.591797 C100.712824,242.798926 68.90625,245.84961 81.3027344,268.822266 C66.0605469,258.001953 77.0722649,246.037109 81.3027344,234.667969 C85.5332031,223.298828 78.5,205.328125 78.5,205.328125 C78.5,205.328125 72.5546875,182.531255 44.5273438,182.53125 C16.5,182.531246 9,218.009666 9,231.5 C9,269.883792 78.5,323.097649 78.5,323.097649 Z"></path>
        <path d="M246,327 C284.659934,327 316,295.659934 316,257 C316,218.340066 284.659934,187 246,187 C207.340066,187 176,218.340066 176,257 C176,295.659934 207.340066,327 246,327 Z M213,247 C221.284272,247 228,240.284272 228,232 C228,223.715728 221.284272,217 213,217 C204.715728,217 198,223.715728 198,232 C198,240.284272 204.715728,247 213,247 Z M279,247 C287.284272,247 294,240.284272 294,232 C294,223.715728 287.284272,217 279,217 C270.715728,217 264,223.715728 264,232 C264,240.284272 270.715728,247 279,247 Z M246.5,315 C278.256375,315 304,290.262204 304,259.746584 C304,244.399569 304,298.369072 246.5,298.457757 C189,298.546441 189,244.577978 189,259.746584 C189,290.262204 214.743625,315 246.5,315 Z" id="path-3"></path>
        <path d="M613.699946,741 C613.896709,740.03067 614,739.027398 614,738 C614,729.715728 607.284272,723 599,723 C590.715728,723 584,729.715728 584,738 C584,739.027398 584.103291,740.03067 584.300054,741 C585.689865,734.153279 591.743126,729 599,729 C606.256874,729 612.310135,734.153279 613.699946,741 L613.699946,741 Z M547.699946,741 C547.896709,740.03067 548,739.027398 548,738 C548,729.715728 541.284272,723 533,723 C524.715728,723 518,729.715728 518,738 C518,739.027398 518.103291,740.03067 518.300054,741 C519.689865,734.153279 525.743126,729 533,729 C540.256874,729 546.310135,734.153279 547.699946,741 L547.699946,741 Z M566,833 C604.659934,833 636,801.659934 636,763 C636,724.340066 604.659934,693 566,693 C527.340066,693 496,724.340066 496,763 C496,801.659934 527.340066,833 566,833 Z M566.134994,811.702672 C576.799805,817.957031 586.305663,799.366111 586.305663,799.366111 C586.305663,799.366111 576.126954,780.066406 566.134994,790.255319 C555.722657,780.066406 545.605662,799.366111 545.605662,799.366111 C545.605662,799.366111 556.170899,817.957031 566.134994,811.702672 Z" id="path-4"></path>
        <path d="M726,663 C764.659934,663 796,631.659934 796,593 C796,554.340066 764.659934,523 726,523 C687.340066,523 656,554.340066 656,593 C656,631.659934 687.340066,663 726,663 Z M693,583 C701.284272,583 708,576.284272 708,568 C708,559.715728 701.284272,553 693,553 C684.715728,553 678,559.715728 678,568 C678,576.284272 684.715728,583 693,583 Z M759,583 C767.284272,583 774,576.284272 774,568 C774,559.715728 767.284272,553 759,553 C750.715728,553 744,559.715728 744,568 C744,576.284272 750.715728,583 759,583 Z M727,613 C735.284272,613 742,606.284272 742,598 C742,589.715728 735.284272,583 727,583 C718.715728,583 712,589.715728 712,598 C712,606.284272 718.715728,613 727,613 Z M726.500001,658.779294 C772.183591,658.779289 804.074221,606.508793 784,595.746584 C763.925778,584.984375 762.771485,625.123841 726.500001,625.035156 C690.228517,624.946469 686.474608,582.624027 668.785156,595.746584 C651.095703,608.869141 680.816411,658.779297 726.500001,658.779294 Z M726,648 C754.718808,648 778,626 778,606.083615 C777.999999,594.441053 778,634.369144 726,634.369141 C674,634.369137 673.999999,594.576397 674,606.083615 C674.000002,626 697.281192,648 726,648 Z" id="path-5"></path>
        <path d="M592.302266,567.660614 C592.837387,564.630519 595.40868,562.333333 598.5,562.333333 C601.979394,562.333333 604.8,565.243482 604.8,568.833333 C604.8,569.003971 604.819119,569.170002 604.855267,569.32927 C604.749143,575.103025 600.153571,579.75 594.5,579.75 C588.887475,579.75 584.317642,575.170256 584.147753,569.454846 L584.147753,569.454846 C584.196303,569.278101 584.222222,569.092062 584.222222,568.9 C584.222222,560.781414 590.838458,554.2 599,554.2 C607.161542,554.2 613.777778,560.781414 613.777778,568.9 C613.777778,570.059798 614.722954,571 615.888889,571 C617.054823,571 618,570.059798 618,568.9 C618,558.461818 609.493411,550 599,550 C588.506589,550 580,558.461818 580,568.9 C580,568.937336 580.00098,568.974445 580.002914,569.011302 C580.00098,569.04895 580,569.086858 580,569.125 C580,577.340236 586.491871,584 594.5,584 C602.508129,584 609,577.340236 609,569.125 C609,569.076295 608.998403,569.027972 608.995259,568.980085 L608.995259,568.980085 C608.998403,568.931587 609,568.882653 609,568.833333 C609,562.850248 604.29899,558 598.5,558 C593.158519,558 588.748603,562.115121 588.086013,567.440212 C588.03002,567.617845 588,567.805686 588,568 C588,568.115509 588.003536,568.230257 588.010514,568.344154 C588.003529,568.506312 588,568.669398 588,568.833333 C588,569.325351 588.158955,569.779065 588.426771,570.142791 C589.361287,572.398286 591.728006,574 594.5,574 C598.089851,574 601,571.313709 601,568 C601,566.895431 600.02995,566 598.833333,566 C597.636716,566 596.666667,566.895431 596.666667,568 C596.666667,569.10457 595.696617,570 594.5,570 C593.303383,570 592.333333,569.10457 592.333333,568 C592.333333,567.884314 592.322693,567.770923 592.302266,567.660614 Z M522.086013,568.440212 C522.748603,563.115121 527.158519,559 532.5,559 C537.886419,559 542.325533,563.184654 542.929913,568.574869 C542.975628,568.750335 543,568.934748 543,569.125 C543,569.252618 542.998433,569.379862 542.995319,569.50671 C542.998432,569.615192 543,569.724074 543,569.833333 C543,569.981919 542.985503,570.127012 542.95789,570.267187 C542.389305,577.948747 536.13351,584 528.5,584 C520.491871,584 514,577.340236 514,569.125 C514,569.086858 514.00098,569.04895 514.002914,569.011302 L514.002914,569.011302 C514.00098,568.974445 514,568.937336 514,568.9 C514,558.461818 522.506589,550 533,550 C543.493411,550 552,558.461818 552,568.9 C552,570.059798 551.054823,571 549.888889,571 C548.722954,571 547.777778,570.059798 547.777778,568.9 C547.777778,560.781414 541.161542,554.2 533,554.2 C524.838458,554.2 518.222222,560.781414 518.222222,568.9 C518.222222,569.092062 518.196303,569.278101 518.147753,569.454846 C518.317642,575.170256 522.887475,579.75 528.5,579.75 C533.902317,579.75 538.338584,575.506885 538.814819,570.09207 L538.814819,570.09207 C538.805034,570.007232 538.8,569.920889 538.8,569.833333 C538.8,566.243482 535.979394,563.333333 532.5,563.333333 C529.40868,563.333333 526.837387,565.630519 526.302266,568.660614 C526.322693,568.770923 526.333333,568.884314 526.333333,569 C526.333333,570.10457 527.303383,571 528.5,571 C529.696617,571 530.666667,570.10457 530.666667,569 C530.666667,567.895431 531.636716,567 532.833333,567 C534.02995,567 535,567.895431 535,569 C535,572.313709 532.089851,575 528.5,575 C525.728006,575 523.361287,573.398286 522.426771,571.142791 C522.158955,570.779065 522,570.325351 522,569.833333 C522,569.669398 522.003529,569.506312 522.010514,569.344154 C522.003536,569.230257 522,569.115509 522,569 C522,568.805686 522.03002,568.617845 522.086013,568.440212 L522.086013,568.440212 Z M632.795384,572 C634.877523,578.629288 636,585.68356 636,593 C636,631.659934 604.659934,663 566,663 C527.340066,663 496,631.659934 496,593 C496,585.68356 497.122477,578.629288 499.204616,572 L510.346601,572 C512.239776,582.795786 521.661789,591 533,591 C544.338211,591 553.760224,582.795786 555.653399,572 L575.346601,572 C577.239776,582.795786 586.661789,591 598,591 C609.338211,591 618.760224,582.795786 620.653399,572 L632.795384,572 L632.795384,572 Z M629.729069,563.999997 C618.704893,539.812682 594.315854,523 566,523 C537.684146,523 513.295107,539.812682 502.270931,563.999997 L510.346601,564 C512.239776,553.204214 521.661789,545 533,545 C544.338211,545 553.760224,553.204214 555.653399,564 L575.346601,564 C577.239776,553.204214 586.661789,545 598,545 C609.338211,545 618.760224,553.204214 620.653399,564 L629.729084,564 L629.729069,563.999997 Z M566.5,651 C598.256375,651 624,626.262204 624,595.746584 C624,580.399569 624,634.369072 566.5,634.457757 C509,634.546441 509,580.577978 509,595.746584 C509,626.262204 534.743625,651 566.5,651 Z" id="path-6"></path>
        <path d="M613.699946,218 C613.896709,217.03067 614,216.027398 614,215 C614,206.715728 607.284272,200 599,200 C590.715728,200 584,206.715728 584,215 C584,216.027398 584.103291,217.03067 584.300054,218 C585.689865,211.153279 591.743126,206 599,206 C606.256874,206 612.310135,211.153279 613.699946,218 L613.699946,218 M566,323 C604.659934,323 636,291.659934 636,253 C636,214.340066 604.659934,183 566,183 C527.340066,183 496,214.340066 496,253 C496,291.659934 527.340066,323 566,323 M533,243 C541.284272,243 548,236.284272 548,228 C548,219.715728 541.284272,213 533,213 C524.715728,213 518,219.715728 518,228 C518,236.284272 524.715728,243 533,243 M599,243 C607.284272,243 614,236.284272 614,228 C614,219.715728 607.284272,213 599,213 C590.715728,213 584,219.715728 584,228 C584,236.284272 590.715728,243 599,243 Z M541.00742,293 C539.346468,293 538,294.346517 538,296 C538,297.656854 539.345539,299 541.00742,299 L570.99258,299 C572.653532,299 574,297.653483 574,296 C574,294.343146 572.654461,293 570.99258,293 L541.00742,293 Z" id="path-7"></path>
        <path d="M566,493 C604.659934,493 636,461.659934 636,423 C636,384.340066 604.659934,353 566,353 C527.340066,353 496,384.340066 496,423 C496,461.659934 527.340066,493 566,493 Z M533,413 C541.284272,413 548,406.284272 548,398 C548,389.715728 541.284272,383 533,383 C524.715728,383 518,389.715728 518,398 C518,406.284272 524.715728,413 533,413 Z M599,413 C607.284272,413 614,406.284272 614,398 C614,389.715728 607.284272,383 599,383 C590.715728,383 584,389.715728 584,398 C584,406.284272 590.715728,413 599,413 Z M566,483 C579.807119,483 591,474.045696 591,463 C591,451.954304 579.807119,443 566,443 C552.192881,443 541,451.954304 541,463 C541,474.045696 552.192881,483 566,483 Z" id="path-8"></path>
        <path d="M476,593 C476,554.340066 444.659934,523 406,523 C367.340066,523 336,554.340066 336,593 C336,631.659934 367.340066,663 406,663 C444.659934,663 476,631.659934 476,593 Z M373,553 C381.284272,553 388,559.715728 388,568 C388,576.284272 381.284272,583 373,583 C364.715728,583 358,576.284272 358,568 C366.284272,568 373,561.284272 373,553 Z M439,553 C447.284272,553 454,559.715728 454,568 C454,576.284272 447.284272,583 439,583 C430.715728,583 424,576.284272 424,568 C432.284272,568 439,561.284272 439,553 Z M410.00742,633 C408.346468,633 407,634.346517 407,636 C407,637.656854 408.345539,639 410.00742,639 L439.99258,639 C441.653532,639 443,637.653483 443,636 C443,634.343146 441.654461,633 439.99258,633 L410.00742,633 Z" id="path-9"></path>
        <path d="M886,323 C924.659934,323 956,291.659934 956,253 C956,214.340066 924.659934,183 886,183 C847.340066,183 816,214.340066 816,253 C816,291.659934 847.340066,323 886,323 Z M853,243 C861.284272,243 868,236.284272 868,228 L838,228 C838,236.284272 844.715728,243 853,243 Z M919,243 C927.284272,243 934,236.284272 934,228 L904,228 C904,236.284272 910.715728,243 919,243 Z M943,253 C946.865993,253 950,249.865993 950,246 C950,242.134007 943,228.4375 943,228.4375 C943,228.4375 936,242.134007 936,246 C936,249.865993 939.134007,253 943,253 Z M871.00742,293 C869.346468,293 868,294.346517 868,296 C868,297.656854 869.345539,299 871.00742,299 L900.99258,299 C902.653532,299 904,297.653483 904,296 C904,294.343146 902.654461,293 900.99258,293 L871.00742,293 Z" id="path-10"></path>
        <path d="M467.729069,393.999997 C471.756317,402.835879 474,412.655919 474,423 C474,461.659934 442.659934,493 404,493 C365.340066,493 334,461.659934 334,423 C334,412.655919 336.243683,402.835879 340.270931,393.999997 L354,394 L354,404.99996 C354,409.41826 357.584935,413 361.99846,413 L386.00154,413 C390.418968,413 394,409.411097 394,404.99996 L394,394 L414,394 L414,404.99996 C414,409.41826 417.584935,413 421.99846,413 L446.00154,413 C450.418968,413 454,409.411097 454,404.99996 L454,394 L467.729084,394 L467.729069,393.999997 Z M465.748871,389.99999 C453.955678,367.97895 430.727101,353 404,353 C377.272899,353 354.044322,367.97895 342.251129,389.99999 L354.062062,390 C354.554705,386.059065 357.920124,383 361.99846,383 L386.00154,383 C390.076757,383 393.445542,386.053686 393.93805,390 L414.062062,390 C414.554705,386.059065 417.920124,383 421.99846,383 L446.00154,383 C450.076757,383 453.445542,386.053686 453.93805,390 L465.748877,390 L465.748871,389.99999 Z M404,483.746584 C426.091391,483.746584 444,466.28569 444,444.746584 L364,444.746584 C364,466.28569 381.908609,483.746584 404,483.746584 Z M384,447 L384,465.993706 C384,468.206321 385.791716,470 387.994783,470 L398.005217,470 C400.211475,470 402,468.214367 402,465.993706 L402,447 L384,447 Z M406,447 L406,465.993706 C406,468.206321 407.791716,470 409.994783,470 L420.005217,470 C422.211475,470 424,468.214367 424,465.993706 L424,447 L406,447 Z M422.999275,388 C420.790536,388 419,389.792468 419,391.99923 L419,404.00077 C419,406.209484 420.786795,408 422.999275,408 L445.000725,408 C447.209464,408 449,406.207532 449,404.00077 L449,391.99923 C449,389.790516 447.213205,388 445.000725,388 L422.999275,388 Z M362.999275,388 C360.790536,388 359,389.792468 359,391.99923 L359,404.00077 C359,406.209484 360.786795,408 362.999275,408 L385.000725,408 C387.209464,408 389,406.207532 389,404.00077 L389,391.99923 C389,389.790516 387.213205,388 385.000725,388 L362.999275,388 Z" id="path-11"></path>
        <path d="M41.0979631,577 C41.0340586,576.647352 41,576.308041 41,576.009205 L41,573 L71,573 L71,576.009205 C71,576.308834 70.960493,576.647712 70.8897829,577 L41.0979631,577 Z M43.2875687,581 C44.7972876,582.27825 48.2577641,583.969726 56,583.969727 C63.7422388,583.969728 67.202715,582.278251 68.712433,581 L43.2875687,581 Z M41,569 L41,565 L71,565 L71,569 L41,569 Z M41,561 L41,559.990795 C41,558.898212 41.8916773,558 42.991617,558 L69.008383,558 C70.1021596,558 71,558.891309 71,559.990795 L71,561 L41,561 L41,561 Z M101.097963,577 C101.034059,576.647352 101,576.308041 101,576.009205 L101,573 L101,573 L131,573 L131,576.009205 C131,576.308834 130.960493,576.647712 130.889783,577 L101.097963,577 L101.097963,577 Z M103.287569,581 C104.797288,582.27825 108.257764,583.969726 116,583.969727 C123.742239,583.969728 127.202715,582.278251 128.712433,581 L103.287569,581 L103.287569,581 Z M101,569 L101,565 L101,565 L131,565 L131,569 L101,569 Z M101,561 L101,559.990795 C101,558.898212 101.891677,558 102.991617,558 L129.008383,558 C130.10216,558 131,558.891309 131,559.990795 L131,561 L101,561 L101,561 Z M96,559.746678 C93.901452,559.230741 88.9858845,558.106445 86,558.106445 C83.3144454,558.106445 78.1665445,559.248303 76,559.758609 L76,556.999275 C76,554.790536 74.2035752,553 71.9999745,553 L40.0000255,553 C37.7908724,553 36,554.786795 36,556.999275 L36,579.000725 C36,581.209464 37.4997888,583.962397 39.4552358,585.013871 C39.4552358,585.013871 43.8183594,588.828127 56,588.828125 C68.1816406,588.828125 72.5612808,585.00571 72.5612808,585.00571 C74.460433,583.897987 76,581.213205 76,579.000725 L76,563.743595 L76,563.743595 C78.1325868,563.211424 83.1634654,562.036133 86,562.036133 C88.8365346,562.036133 93.8674132,563.211424 96,563.743595 L96,579.000725 C96,581.209464 97.4997888,583.962397 99.4552358,585.013871 C99.4552358,585.013871 103.818359,588.828127 116,588.828125 C128.181641,588.828125 132.561281,585.00571 132.561281,585.00571 C134.460433,583.897987 136,581.213205 136,579.000725 L136,556.999275 C136,554.790536 134.203575,553 131.999974,553 L100.000026,553 C97.7908724,553 96,554.786795 96,556.999275 L96,559.746678 L96,559.746678 Z M86,663 C124.659934,663 156,631.659934 156,593 C156,554.340066 124.659934,523 86,523 C47.3400656,523 16,554.340066 16,593 C16,631.659934 47.3400656,663 86,663 Z M86.5,651 C118.256375,651 144,626.262204 144,595.746584 C144,580.399569 144,634.369072 86.5,634.457757 C29,634.546441 29,580.577978 29,595.746584 C29,626.262204 54.7436253,651 86.5,651 Z" id="path-12"></path>
        <path d="M246,493 C284.659934,493 316,461.659934 316,423 C316,384.340066 284.659934,353 246,353 C207.340066,353 176,384.340066 176,423 C176,461.659934 207.340066,493 246,493 Z M211,413 C219.284272,413 226,406.284272 226,398 C226,389.715728 219.284272,383 211,383 C202.715728,383 196,389.715728 196,398 C196,406.284272 202.715728,413 211,413 Z M277,413 C285.284272,413 292,406.284272 292,398 C292,389.715728 285.284272,383 277,383 C268.715728,383 262,389.715728 262,398 C262,406.284272 268.715728,413 277,413 Z M246,480.746584 C277.480232,480.746584 303,456.569962 303,426.746584 L189,426.746584 C189,456.569962 214.519768,480.746584 246,480.746584 Z" id="path-13"></path>
        <path d="M903.967033,95.7253779 L903.967033,75.4355322 C903.967033,69.3470196 908.896057,64.4285714 914.976316,64.4285714 L913.990717,64.4285714 C920.068704,64.4285714 925,69.3565556 925,75.4355322 L925,97.2857143 L925,103.872126 C925,113.541577 918.618709,121.724324 909.838379,124.430931 L909.838379,124.430931 C909.778887,124.429361 909.719204,124.428571 909.659341,124.428571 C905.963281,124.428571 902.967033,127.432213 902.967033,131.127302 L902.967033,144.118128 C900.894638,145.516544 898.39732,146.333333 895.709377,146.333333 L865.290623,146.333333 C862.603875,146.333333 860.106109,145.516614 858.032967,144.11774 L858.032967,131.127302 C858.032967,127.814619 855.624642,125.063561 852.472835,124.524356 L852.472835,124.524356 C843.533322,121.917453 837,113.657973 837,103.872126 L837,97.2857143 L837,82.0272779 L837,47.8025871 C837,41.9934161 841.70839,37.2857143 847.516484,37.2857143 C853.325854,37.2857143 858.032967,41.9942786 858.032967,47.8025871 L858.032967,76.8095238 L858.989011,76.8095238 L858.989011,28.7592846 C858.989011,22.68764 863.918035,17.7619048 869.998294,17.7619048 L869.012695,17.7619048 C875.090682,17.7619048 880.021978,22.6855994 880.021978,28.7592846 L880.021978,76.8095238 L880.978022,76.8095238 L880.978022,23.9973798 C880.978022,17.9257352 885.907046,13 891.987305,13 L891.001706,13 C897.079693,13 902.010989,17.9236947 902.010989,23.9973798 L902.010989,89.1904762 L901.967033,89.1904762 L901.967033,96.8095238 L902.034922,96.8095238 C901.84661,103.030986 899.495935,106.450561 894.706305,108.223377 C890.575359,109.752392 886.19455,110.043166 873.976378,110.043165 C873.437139,110.043165 873,110.481218 873,111.021583 C873,111.561948 873.437139,112 873.976378,112 C886.472289,112.000001 890.940068,111.703453 895.382906,110.058997 C901.176452,107.914594 904.000001,103.521731 904,95.9784171 C904,95.8909125 903.988537,95.8060908 903.967033,95.7253779 Z" id="path-14"></path>
        <path d="M246,663 C284.659934,663 316,631.659934 316,593 C316,554.340066 284.659934,523 246,523 C207.340066,523 176,554.340066 176,593 C176,631.659934 207.340066,663 246,663 Z M269,654 C271.209139,654 273,651.95851 273,649.440204 C273,646.921897 269,638 269,638 C269,638 265,646.921897 265,649.440204 C265,651.95851 266.790861,654 269,654 Z M211,583 C219.284272,583 226,576.284272 226,568 C226,559.715728 219.284272,553 211,553 C202.715728,553 196,559.715728 196,568 C196,576.284272 202.715728,583 211,583 Z M277,583 C285.284272,583 292,576.284272 292,568 C292,559.715728 285.284272,553 277,553 C268.715728,553 262,559.715728 262,568 C262,576.284272 268.715728,583 277,583 Z M246,614.539062 C231.899414,614.539063 225.600708,619.479188 225.600708,619.479188 C221.955238,621.423679 219,626.366293 219,630.5 L219,630.5 C219,634.642136 222.357539,638 226.508469,638 L265.491531,638 C269.638344,638 273,634.633707 273,630.5 L273,630.5 C273,626.357864 270.105744,621.318275 266.385889,619.473068 C266.385889,619.473068 260.100586,614.539062 246,614.539062 Z" id="path-15"></path>
        <path d="M227.699946,55 C227.896709,55.9693298 228,56.9726025 228,58 C228,66.2842717 221.284272,73 213,73 C204.715728,73 198,66.2842717 198,58 C198,56.9726025 198.103291,55.9693298 198.300054,55 C199.689865,61.8467212 205.743126,67 213,67 C220.256874,67 226.310135,61.8467212 227.699946,55 L227.699946,55 Z M246,153 C284.659934,153 316,121.659934 316,83 C316,44.3400656 284.659934,13 246,13 C207.340066,13 176,44.3400656 176,83 C176,121.659934 207.340066,153 246,153 Z M279,73 C287.284272,73 294,66.2842717 294,58 C294,49.7157283 287.284272,43 279,43 C270.715728,43 264,49.7157283 264,58 C264,66.2842717 270.715728,73 279,73 Z M246.5,141 C278.256375,141 304,116.262204 304,85.7465839 C304,70.3995695 304,124.369072 246.5,124.457757 C189,124.546441 189,70.5779777 189,85.7465839 C189,116.262204 214.743625,141 246.5,141 Z" id="path-16"></path>
        <path d="M773.699946,225 C773.896709,225.96933 774,226.972602 774,228 C774,236.284272 767.284272,243 759,243 C750.715728,243 744,236.284272 744,228 C744,226.972602 744.103291,225.96933 744.300054,225 C745.689865,231.846721 751.743126,237 759,237 C766.256874,237 772.310135,231.846721 773.699946,225 Z M707.699946,225 C707.896709,225.96933 708,226.972602 708,228 C708,236.284272 701.284272,243 693,243 C684.715728,243 678,236.284272 678,228 C678,226.972602 678.103291,225.96933 678.300054,225 C679.689865,231.846721 685.743126,237 693,237 C700.256874,237 706.310135,231.846721 707.699946,225 L707.699946,225 Z M726,323 C764.659934,323 796,291.659934 796,253 C796,214.340066 764.659934,183 726,183 C687.340066,183 656,214.340066 656,253 C656,291.659934 687.340066,323 726,323 Z M726,311 C734.284272,311 741,304.284272 741,296 C741,287.715728 734.284272,281 726,281 C717.715728,281 711,287.715728 711,296 C711,304.284272 717.715728,311 726,311 Z" id="path-17"></path>
        <path d="M726,493 C764.659934,493 796,461.659934 796,423 C796,384.340066 764.659934,353 726,353 C687.340066,353 656,384.340066 656,423 C656,461.659934 687.340066,493 726,493 M746,463 C746,451.954304 737.045696,443 726,443 C714.954304,443 706,451.954304 706,463 C706,474.045696 714.954304,483 726,483 C737.045696,483 746,474.045696 746,463 Z M708.063932,399.877864 L684.763932,411.527864 C682.29404,412.76281 681.292918,415.766175 682.527864,418.236068 C683.76281,420.70596 686.766175,421.707082 689.236068,420.472136 L721.236068,404.472136 C724.921311,402.629515 724.921311,397.370485 721.236068,395.527864 L689.236068,379.527864 C686.766175,378.292918 683.76281,379.29404 682.527864,381.763932 C681.292918,384.233825 682.29404,387.23719 684.763932,388.472136 L708.063932,399.877864 Z M745.284973,399.947136 L768.234973,388.472136 C770.704865,387.23719 771.705987,384.233825 770.471041,381.763932 C769.236094,379.29404 766.232729,378.292918 763.762837,379.527864 L731.762837,395.527864 C728.077594,397.370485 728.077594,402.629515 731.762837,404.472136 L763.762837,420.472136 C766.232729,421.707082 769.236094,420.70596 770.471041,418.236068 C771.705987,415.766175 770.704865,412.76281 768.234973,411.527864 L745.284973,399.947136 Z" id="path-18"></path>
        <path d="M451.893697,309.857523 C439.605641,320.535815 423.557717,327 406,327 C388.74547,327 372.949041,320.757135 360.746226,310.406921 C368.944425,300.719063 382.864501,291.578697 406.5,291.542243 C429.79294,291.506317 443.650036,300.341259 451.893697,309.857523 Z M457.397433,304.522107 C468.94375,292.04027 476,275.344173 476,257 C476,218.340066 444.659934,187 406,187 C367.340066,187 336,218.340066 336,257 C336,275.677953 343.315369,292.647309 355.237281,305.199243 C364.743026,287.275647 384.129658,275 406.5,275 C428.5875,275 447.766263,286.967192 457.397433,304.522107 Z M373,247 C381.284272,247 388,240.284272 388,232 C388,223.715728 381.284272,217 373,217 C364.715728,217 358,223.715728 358,232 C358,240.284272 364.715728,247 373,247 Z M439,247 C447.284272,247 454,240.284272 454,232 C454,223.715728 447.284272,217 439,217 C430.715728,217 424,223.715728 424,232 C424,240.284272 430.715728,247 439,247 Z" id="path-19"></path>
        <path d="M739.032967,70.9161034 L739.032967,23.9901567 C739.032967,17.9204607 734.101671,13 728.023684,13 L729.009283,13 C722.929024,13 718,17.9280137 718,23.9901567 L718,67.5948755 L718,67.5948755 C717.646952,62.1051792 713.084512,57.7619048 707.505495,57.7619048 C701.697401,57.7619048 696.989011,62.4742044 696.989011,68.28051 L696.989011,72.9658159 C696.50044,67.6104456 691.999388,63.4155299 686.516484,63.4155299 C680.70839,63.4155299 676,68.1278296 676,73.9341351 L676,98.125926 C676,103.935191 680.707113,108.644531 686.516484,108.644531 C692.324577,108.644531 697.032967,103.932232 697.032967,98.125926 L697.032967,93.4406201 L697.032967,93.4406201 C697.521538,98.7959904 702.02259,102.990906 707.505495,102.990906 C713.313588,102.990906 718.021978,98.2786064 718.021978,92.4723009 L718.021978,89.1904762 L718.032967,89.1904762 L718.032967,94.2863716 C718.032967,100.092677 713.324577,104.804977 707.516484,104.804977 C701.989564,104.804977 697.460324,100.54244 697.032967,95.125494 L697.032967,100.286372 C697.032967,106.092677 692.324577,110.804977 686.516484,110.804977 C680.707113,110.804977 676,106.095637 676,100.286372 L676,94.6431858 L676,94.6431858 L676,103.499923 C676,113.652341 683.037261,122.161228 692.501797,124.415342 C692.490994,124.451441 692.480357,124.487611 692.469885,124.523852 L692.469885,124.523852 C695.623139,125.061844 698.032967,127.813586 698.032967,131.127302 L698.032967,144.747013 C699.790739,145.756242 701.828604,146.333333 704.001925,146.333333 L733.701372,146.333333 C735.997609,146.333333 738.143234,145.687892 739.967033,144.568865 L739.967033,130.501167 C739.967033,127.091802 742.590108,124.296263 745.927569,124.022067 L745.927569,124.022067 C752.608327,121.931592 757.886996,116.670355 760.000014,110 L777.490471,110 C783.294724,110 788,105.300265 788,99.5 C788,93.7010101 783.293868,89 777.490471,89 L759.754765,89 L759.754765,89 L718.5,89 L718.5,89 L718.5,89 L739.016484,89 L756,89 L755.983509,88.9835087 C746.602248,88.9746023 739,81.36686 739,71.9835165 C739,71.625012 739.011097,71.2690994 739.032967,70.9161034 Z M718.021978,74.9047619 L718.021978,69.6093345 C718.029278,69.7701683 718.032967,69.9319435 718.032967,70.0945807 L718.032967,74.9047619 L718.021978,74.9047619 L718.021978,74.9047619 Z" id="path-20"></path>
        <path d="M387.815301,60.3606839 C386.683006,67.5233912 380.481068,73 373,73 C364.715728,73 358,66.2842717 358,58 C358,50.3917066 363.664466,44.1064208 371.006193,43.1313475 L387.815301,60.3606839 L387.815301,60.3606839 Z M440.993807,43.1313475 C448.335534,44.1064208 454,50.3917066 454,58 C454,66.2842717 447.284272,73 439,73 C431.518932,73 425.316994,67.5233912 424.184699,60.3606839 L440.993807,43.1313475 L440.993807,43.1313475 Z M406,153 C444.659934,153 476,121.659934 476,83 C476,44.3400656 444.659934,13 406,13 C367.340066,13 336,44.3400656 336,83 C336,121.659934 367.340066,153 406,153 Z M406,130 C428.091391,130 446,130.150265 446,118 C446,105.849735 428.091391,106 406,106 C383.908609,106 366,105.849735 366,118 C366,130.150265 383.908609,130 406,130 Z" id="path-21"></path>
        <path d="M570.89802,114.367298 C567.878082,104.875831 558.99201,98 548.5,98 C535.521308,98 525,108.521308 525,121.5 C525,124.261424 527.238576,126.5 530,126.5 C532.761424,126.5 535,124.261424 535,121.5 C535,114.044155 541.044155,108 548.5,108 C554.276938,108 559.206374,111.628585 561.133468,116.730917 C564.183296,126.171564 573.044214,133 583.5,133 C596.478692,133 607,122.478692 607,109.5 C607,106.738576 604.761424,104.5 602,104.5 C599.238576,104.5 597,106.738576 597,109.5 C597,116.955845 590.955845,123 583.5,123 C577.783963,123 572.897653,119.447517 570.928476,114.429956 C570.920145,114.408727 570.909975,114.387841 570.89802,114.367298 Z M566,153 C604.659934,153 636,121.659934 636,83 C636,44.3400656 604.659934,13 566,13 C527.340066,13 496,44.3400656 496,83 C496,121.659934 527.340066,153 566,153 Z M533,73 C541.284272,73 548,66.2842717 548,58 C548,49.7157283 541.284272,43 533,43 C524.715728,43 518,49.7157283 518,58 C518,66.2842717 524.715728,73 533,73 Z M599,73 C607.284272,73 614,66.2842717 614,58 C614,49.7157283 607.284272,43 599,43 C590.715728,43 584,49.7157283 584,58 C584,66.2842717 590.715728,73 599,73 Z" id="path-22"></path>
        <path d="M154,423 C154,384.340066 122.659934,353 84,353 C45.3400656,353 14,384.340066 14,423 C14,461.659934 45.3400656,493 84,493 C122.659934,493 154,461.659934 154,423 Z M83.5,481 C115.256375,481 131,456.262204 131,445.746584 C130.999998,430.399569 130.999996,464.546448 83.5,464.457757 C36.0000037,464.369066 35.9999987,430.577978 36,445.746584 C36,456.262204 51.7436253,481 83.5,481 Z M66,398 C66,406.284272 59.2842717,413 51,413 C42.7157283,413 36,406.284272 36,398 C36,389.715728 42.7157283,383 51,383 C51,391.284272 57.7157283,398 66,398 Z M102,398 C102,389.715728 108.715728,383 117,383 C125.284272,383 132,389.715728 132,398 C132,406.284272 125.284272,413 117,413 C117,404.715728 110.284272,398 102,398 Z" id="path-23"></path>
        <path d="M447.009023,756.33188 C444.556795,757.404751 441.847912,758 439,758 C427.954304,758 419,749.045696 419,738 C419,726.954304 427.954304,718 439,718 C450.045696,718 459,726.954304 459,738 C459,742.625605 457.429699,746.884447 454.793103,750.27252 C457.230928,751.034945 459,753.310878 459,756 C459,759.313709 456.313709,762 453,762 C449.797653,762 447.181261,759.491227 447.009023,756.33188 L447.009023,756.33188 Z M406,833 C444.659934,833 476,801.659934 476,763 C476,724.340066 444.659934,693 406,693 C367.340066,693 336,724.340066 336,763 C336,801.659934 367.340066,833 406,833 Z M373,753 C381.284272,753 388,746.284272 388,738 C388,729.715728 381.284272,723 373,723 C364.715728,723 358,729.715728 358,738 C358,746.284272 364.715728,753 373,753 Z M439,753 C447.284272,753 454,746.284272 454,738 C454,729.715728 447.284272,723 439,723 C430.715728,723 424,729.715728 424,738 C424,746.284272 430.715728,753 439,753 Z M405.5,781.136674 C418.597656,796.445724 465.521484,791.344901 465.521484,783.915214 C450.222656,783.915214 415.1875,761.077323 405.5,772.319511 C398.629883,761.077323 358.905273,783.915214 347.123047,783.915214 C347.123047,791.760917 392.977626,796.445722 405.5,781.136674 Z M451,756 C451,754.89543 451.89543,754 453,754 C454.10457,754 455,754.89543 455,756 C455,757.10457 454.10457,758 453,758 C451.89543,758 451,757.10457 451,756 Z" id="path-24"></path>
        <path d="M126.682308,706.028878 C115.21685,697.826921 101.172119,693 86,693 C70.8278808,693 56.78315,697.826921 45.3176917,706.028878 L45.3176917,706.028878 C40.2535598,706.382515 30.1643557,705.164356 18.3933983,693.393398 C23.7513667,711.456645 27.4447822,719.075026 29.2154188,722.058178 C20.900157,733.570924 16,747.713215 16,763 C16,801.659934 47.3400656,833 86,833 C124.659934,833 156,801.659934 156,763 C156,747.713215 151.099843,733.570924 142.784581,722.058178 C144.555218,719.075026 148.248633,711.456645 153.606602,693.393398 C141.835644,705.164356 131.74644,706.382515 126.682308,706.028878 Z M53,753 C61.2842717,753 68,746.284272 68,738 C68,729.715728 61.2842717,723 53,723 C44.7157283,723 38,729.715728 38,738 C38,746.284272 44.7157283,753 53,753 Z M119,753 C127.284272,753 134,746.284272 134,738 C134,729.715728 127.284272,723 119,723 C110.715728,723 104,729.715728 104,738 C104,746.284272 110.715728,753 119,753 Z M119,752 C119,752 124,745.731987 124,738 C124,730.268013 119,724 119,724 C119,724 114,730.268013 114,738 C114,745.731987 119,752 119,752 Z M53,752 C53,752 58,745.731987 58,738 C58,730.268013 53,724 53,724 C53,724 48,730.268013 48,738 C48,745.731987 53,752 53,752 Z M86,820.746584 C117.480232,820.746584 143,796.569962 143,766.746584 C143,766.746584 126.888672,787.886723 86,787.886719 C45.1113281,787.886716 29,766.746584 29,766.746584 C29,796.569962 54.5197677,820.746584 86,820.746584 Z" id="path-25"></path>
        <path d="M886,628.773503 L858.192885,644.827948 C855.802536,646.208017 852.739696,645.391463 851.358984,643 C849.981081,640.613403 850.799338,637.549609 853.192885,636.167694 L876,623 L853.192885,609.832306 C850.802536,608.452237 849.978272,605.391463 851.358984,603 C852.736886,600.613403 855.799338,599.790137 858.192885,601.172052 L886,617.226497 L913.807115,601.172052 C916.197464,599.791983 919.260304,600.608537 920.641016,603 C922.018919,605.386597 921.200662,608.450391 918.807115,609.832306 L896,623 L918.807115,636.167694 C921.197464,637.547763 922.021728,640.608537 920.641016,643 C919.263114,645.386597 916.200662,646.209863 913.807115,644.827948 L886,628.773503 Z M933.058646,580.24181 C930.932747,585.941114 925.440376,590 919,590 C912.559624,590 907.067253,585.941114 904.941354,580.24181 C908.239961,584.361584 913.311863,587 919,587 C924.688137,587 929.760039,584.361584 933.058648,580.241807 L933.058646,580.24181 Z M867.058646,580.24181 C864.932747,585.941114 859.440376,590 853,590 C846.559624,590 841.067253,585.941114 838.941354,580.24181 C842.239961,584.361584 847.311863,587 853,587 C858.688137,587 863.760039,584.361584 867.058648,580.241807 L867.058646,580.24181 Z M886,663 C924.659934,663 956,631.659934 956,593 C956,554.340066 924.659934,523 886,523 C847.340066,523 816,554.340066 816,593 C816,631.659934 847.340066,663 886,663 Z M853,583 C861.284272,583 868,576.284272 868,568 C868,559.715728 861.284272,553 853,553 C844.715728,553 838,559.715728 838,568 C838,576.284272 844.715728,583 853,583 Z M919,583 C927.284272,583 934,576.284272 934,568 C934,559.715728 927.284272,553 919,553 C910.715728,553 904,559.715728 904,568 C904,576.284272 910.715728,583 919,583 Z" id="path-26"></path>
        <path d="M295.627248,812.367364 C282.949622,825.111311 265.396062,833 246,833 C207.340066,833 176,801.659934 176,763 C176,724.340066 207.340066,693 246,693 C265.396062,693 282.949622,700.888689 295.627248,713.632636 L246.259885,763 L295.627248,812.367364 L295.627248,812.367364 Z M256,733 C261.522848,733 266,728.522848 266,723 C266,717.477152 261.522848,713 256,713 C250.477152,713 246,717.477152 246,723 C246,728.522848 250.477152,733 256,733 Z" id="path-27"></path>
        <path d="M851,466.802233 L851,468.009222 C851,468.549025 850.556414,469 850.009222,469 L847.60334,469 L847.60334,469 C855.83542,477.435744 869.958832,483 886,483 C902.041168,483 916.16458,477.435744 924.39666,469 L924.39666,469 L922.990778,469 C922.450975,469 922,468.556414 922,468.009222 L922,466.729588 C920.355255,466.98403 918.684708,467.235301 917,467.480627 L917,470.009222 C917,470.549025 916.556414,471 916.009222,471 L911.990778,471 C911.450975,471 911,470.556414 911,470.009222 L911,468.318601 C909.298863,468.545355 907.629951,468.757951 906,468.95478 L906,471.009222 C906,471.549025 905.556414,472 905.009222,472 L900.990778,472 C900.450975,472 900,471.556414 900,471.009222 L900,469.624209 C898.247931,469.801721 896.57918,469.953111 895,470.076853 L895,472.009222 C895,472.549025 894.556414,473 894.009222,473 L889.990778,473 C889.450975,473 889,472.556414 889,472.009222 L889,470.42686 C888.026651,470.459791 887.106644,470.476562 886.242481,470.476562 C885.533471,470.476562 884.785495,470.465037 884,470.442336 L884,472.009222 C884,472.549025 883.556414,473 883.009222,473 L878.990778,473 C878.450975,473 878,472.556414 878,472.009222 L878,470.112397 C876.425027,469.99262 874.756168,469.844358 873,469.669198 L873,471.009222 C873,471.549025 872.556414,472 872.009222,472 L867.990778,472 C867.450975,472 867,471.556414 867,471.009222 L867,469.008026 C865.371692,468.813433 863.702726,468.602847 862,468.377898 L862,470.009222 C862,470.549025 861.556414,471 861.009222,471 L856.990778,471 C856.450975,471 856,470.556414 856,470.009222 L856,467.54702 C854.317163,467.303982 852.646632,467.054809 851,466.802233 Z M851,465.790517 L851,463.990778 C851,463.443586 850.549025,463 850.009222,463 L845.990778,463 C845.443586,463 845,463.450975 845,463.990778 L845,464.837728 C844.687851,464.786562 844.382466,464.73625 844.08412,464.686855 C841.68801,461.105856 840.261799,457.163401 840.03269,453.013458 C840.093825,453.024189 840.171382,453.037758 840.265012,453.054078 C840.553174,453.104305 840.890363,453.162554 841.273742,453.228158 C842.368804,453.415544 843.614581,453.624323 844.988386,453.849149 C844.992257,453.849782 844.996128,453.850416 845,453.85105 L845,456.009222 C845,456.556414 845.450975,457 845.990778,457 L850.009222,457 C850.556414,457 851,456.549025 851,456.009222 L851,454.802233 C852.646632,455.054809 854.317163,455.303982 856,455.54702 L856,458.009222 C856,458.556414 856.450975,459 856.990778,459 L861.009222,459 C861.556414,459 862,458.549025 862,458.009222 L862,456.377898 C863.702726,456.602847 865.371692,456.813433 867,457.008026 L867,459.009222 C867,459.556414 867.450975,460 867.990778,460 L872.009222,460 C872.556414,460 873,459.549025 873,459.009222 L873,457.669198 C874.756168,457.844358 876.425027,457.99262 878,458.112397 L878,460.009222 C878,460.556414 878.450975,461 878.990778,461 L883.009222,461 C883.556414,461 884,460.549025 884,460.009222 L884,458.442336 C884.785495,458.465037 885.533471,458.476562 886.242481,458.476562 C887.106644,458.476562 888.026651,458.459791 889,458.42686 L889,460.009222 C889,460.556414 889.450975,461 889.990778,461 L894.009222,461 C894.556414,461 895,460.549025 895,460.009222 L895,458.076853 C896.57918,457.953111 898.247931,457.801721 900,457.624209 L900,459.009222 C900,459.556414 900.450975,460 900.990778,460 L905.009222,460 C905.556414,460 906,459.549025 906,459.009222 L906,456.95478 C907.629951,456.757951 909.298863,456.545355 911,456.318601 L911,458.009222 C911,458.556414 911.450975,459 911.990778,459 L916.009222,459 C916.556414,459 917,458.549025 917,458.009222 L917,455.480627 C918.684708,455.235301 920.355255,454.98403 922,454.729588 L922,456.009222 C922,456.556414 922.450975,457 922.990778,457 L927.009222,457 C927.556414,457 928,456.549025 928,456.009222 L928,453.769959 C929.179398,453.57515 930.257272,453.393306 931.218238,453.228091 C931.489964,453.181375 931.738354,453.138387 931.962394,453.09937 L931.962394,453.09937 C931.721353,457.169051 930.328981,461.037893 928,464.560386 L928,463.990778 C928,463.443586 927.549025,463 927.009222,463 L922.990778,463 C922.443586,463 922,463.450975 922,463.990778 L922,465.717671 C920.355635,465.972499 918.685051,466.224227 917,466.470061 L917,465.990778 C917,465.443586 916.549025,465 916.009222,465 L911.990778,465 C911.443586,465 911,465.450975 911,465.990778 L911,467.309736 C909.298827,467.537006 907.629894,467.750131 906,467.947495 L906,466.990778 C906,466.443586 905.549025,466 905.009222,466 L900.990778,466 C900.443586,466 900,466.450975 900,466.990778 L900,468.619046 C898.247196,468.797301 896.578347,468.94937 895,469.073732 L895,467.990778 C895,467.443586 894.549025,467 894.009222,467 L889.990778,467 C889.443586,467 889,467.450975 889,467.990778 L889,469.42628 C888.025354,469.459595 887.105294,469.476562 886.242481,469.476562 C885.534443,469.476562 884.786437,469.464895 884,469.441914 L884,467.990778 C884,467.443586 883.549025,467 883.009222,467 L878.990778,467 C878.443586,467 878,467.450975 878,467.990778 L878,469.109454 C876.42593,468.989054 874.756967,468.840103 873,468.664188 L873,466.990778 C873,466.443586 872.549025,466 872.009222,466 L867.990778,466 C867.443586,466 867,466.450975 867,466.990778 L867,468.00089 C865.371751,467.805764 863.702763,467.594651 862,467.369189 L862,465.990778 C862,465.443586 861.549025,465 861.009222,465 L856.990778,465 C856.443586,465 856,465.450975 856,465.990778 L856,466.536625 C854.316837,466.293092 852.64627,466.043471 851,465.790517 Z M845,465.85105 L845,465.975782 C844.964377,465.92847 844.928928,465.881089 844.893652,465.833638 C844.925162,465.8388 844.95674,465.84397 844.988386,465.849149 C844.992257,465.849782 844.996128,465.850416 845,465.85105 Z M931.998544,452.077941 C931.999514,451.994456 932,451.910893 932,451.827253 C932,451.827253 911.4051,443 886,443 C860.5949,443 840,451.827253 840,451.827253 C840,452.035095 840.003002,452.242462 840.008977,452.449335 L840.087233,452.007668 C840.146936,452.018247 840.264592,452.038928 840.436723,452.068931 C840.723884,452.118983 841.060058,452.177057 841.442409,452.242485 C842.495198,452.422637 843.687831,452.622646 845,452.837728 L845,451.990778 C845,451.450975 845.443586,451 845.990778,451 L850.009222,451 C850.549025,451 851,451.443586 851,451.990778 L851,453.790517 C852.64627,454.043471 854.316837,454.293092 856,454.536625 L856,453.990778 C856,453.450975 856.443586,453 856.990778,453 L861.009222,453 C861.549025,453 862,453.443586 862,453.990778 L862,455.369189 C863.702763,455.594651 865.371751,455.805764 867,456.00089 L867,454.990778 C867,454.450975 867.443586,454 867.990778,454 L872.009222,454 C872.549025,454 873,454.443586 873,454.990778 L873,456.664188 C874.756967,456.840103 876.42593,456.989054 878,457.109454 L878,455.990778 C878,455.450975 878.443586,455 878.990778,455 L883.009222,455 C883.549025,455 884,455.443586 884,455.990778 L884,457.441914 C884.786437,457.464895 885.534443,457.476562 886.242481,457.476562 C887.105294,457.476562 888.025354,457.459595 889,457.42628 L889,455.990778 C889,455.450975 889.443586,455 889.990778,455 L894.009222,455 C894.549025,455 895,455.443586 895,455.990778 L895,457.073732 C896.578347,456.94937 898.247196,456.797301 900,456.619046 L900,454.990778 C900,454.450975 900.443586,454 900.990778,454 L905.009222,454 C905.549025,454 906,454.443586 906,454.990778 L906,455.947495 C907.629894,455.750131 909.298827,455.537006 911,455.309736 L911,453.990778 C911,453.450975 911.443586,453 911.990778,453 L916.009222,453 C916.549025,453 917,453.443586 917,453.990778 L917,454.470061 C918.685051,454.224227 920.355635,453.972499 922,453.717671 L922,451.990778 C922,451.450975 922.443586,451 922.990778,451 L927.009222,451 C927.549025,451 928,451.443586 928,451.990778 L928,452.756385 C929.113644,452.572103 930.134362,452.399766 931.048798,452.242551 C931.406902,452.180984 931.724264,452.125928 931.998544,452.077941 L931.998544,452.077941 Z M886,493 C924.659934,493 956,461.659934 956,423 C956,384.340066 924.659934,353 886,353 C847.340066,353 816,384.340066 816,423 C816,461.659934 847.340066,493 886,493 Z M851,413 C859.284272,413 866,406.284272 866,398 C866,389.715728 859.284272,383 851,383 C842.715728,383 836,389.715728 836,398 C836,406.284272 842.715728,413 851,413 Z M917,413 C925.284272,413 932,406.284272 932,398 C932,389.715728 925.284272,383 917,383 C908.715728,383 902,389.715728 902,398 C902,406.284272 908.715728,413 917,413 Z" id="path-28"></path>
    </defs>
    <g id="Page-1" stroke="none" stroke-width="1" fill="none" fill-rule="evenodd" sketch:type="MSPage">
        <g id="&lt;3">
            <use fill="#000000" fill-rule="evenodd" sketch:type="MSShapeGroup" xlink:href="#path-1"></use>
            <use fill="none" xlink:href="#path-1"></use>
        </g>
        <g id="&lt;/3">
            <use fill="#000000" fill-rule="evenodd" sketch:type="MSShapeGroup" xlink:href="#path-2"></use>
            <use fill="none" xlink:href="#path-2"></use>
        </g>
        <g id=":)">
            <use fill="#000000" fill-rule="evenodd" sketch:type="MSShapeGroup" xlink:href="#path-3"></use>
            <use fill="none" xlink:href="#path-3"></use>
        </g>
        <g id=":*">
            <use fill="#000000" fill-rule="evenodd" sketch:type="MSShapeGroup" xlink:href="#path-4"></use>
            <use fill="none" xlink:href="#path-4"></use>
        </g>
        <g id=":O">
            <use fill="#000000" fill-rule="evenodd" sketch:type="MSShapeGroup" xlink:href="#path-5"></use>
            <use fill="none" xlink:href="#path-5"></use>
        </g>
        <g id="@)">
            <use fill="#000000" fill-rule="evenodd" sketch:type="MSShapeGroup" xlink:href="#path-6"></use>
            <use fill="none" xlink:href="#path-6"></use>
        </g>
        <g id=":/">
            <use fill="#000000" fill-rule="evenodd" sketch:type="MSShapeGroup" xlink:href="#path-7"></use>
            <use fill="none" xlink:href="#path-7"></use>
        </g>
        <g id=":@">
            <use fill="#000000" fill-rule="evenodd" sketch:type="MSShapeGroup" xlink:href="#path-8"></use>
            <use fill="none" xlink:href="#path-8"></use>
        </g>
        <g id="8|">
            <use fill="#000000" fill-rule="evenodd" sketch:type="MSShapeGroup" xlink:href="#path-9"></use>
            <use fill="none" xlink:href="#path-9"></use>
        </g>
        <g id=":|">
            <use fill="#000000" fill-rule="evenodd" sketch:type="MSShapeGroup" xlink:href="#path-10"></use>
            <use fill="none" xlink:href="#path-10"></use>
        </g>
        <g id=":B">
            <use fill="#000000" fill-rule="evenodd" sketch:type="MSShapeGroup" xlink:href="#path-11"></use>
            <use fill="none" xlink:href="#path-11"></use>
        </g>
        <g id="8)">
            <use fill="#000000" fill-rule="evenodd" sketch:type="MSShapeGroup" xlink:href="#path-12"></use>
            <use fill="none" xlink:href="#path-12"></use>
        </g>
        <g id=":D">
            <use fill="#000000" fill-rule="evenodd" sketch:type="MSShapeGroup" xlink:href="#path-13"></use>
            <use fill="none" xlink:href="#path-13"></use>
        </g>
        <g id="=;">
            <use fill="#000000" fill-rule="evenodd" sketch:type="MSShapeGroup" xlink:href="#path-14"></use>
            <use fill="none" xlink:href="#path-14"></use>
        </g>
        <g id=":P">
            <use fill="#000000" fill-rule="evenodd" sketch:type="MSShapeGroup" xlink:href="#path-15"></use>
            <use fill="none" xlink:href="#path-15"></use>
        </g>
        <g id=";)">
            <use fill="#000000" fill-rule="evenodd" sketch:type="MSShapeGroup" xlink:href="#path-16"></use>
            <use fill="none" xlink:href="#path-16"></use>
        </g>
        <g id="|)">
            <use fill="#000000" fill-rule="evenodd" sketch:type="MSShapeGroup" xlink:href="#path-17"></use>
            <use fill="none" xlink:href="#path-17"></use>
        </g>
        <g id="#0">
            <use fill="#000000" fill-rule="evenodd" sketch:type="MSShapeGroup" xlink:href="#path-18"></use>
            <use fill="none" xlink:href="#path-18"></use>
        </g>
        <g id=":(">
            <use fill="#000000" fill-rule="evenodd" sketch:type="MSShapeGroup" xlink:href="#path-19"></use>
            <use fill="none" xlink:href="#path-19"></use>
        </g>
        <g id="L)">
            <use fill="#000000" fill-rule="evenodd" sketch:type="MSShapeGroup" xlink:href="#path-20"></use>
            <use fill="none" xlink:href="#path-20"></use>
        </g>
        <g id="x(">
            <use fill="#000000" fill-rule="evenodd" sketch:type="MSShapeGroup" xlink:href="#path-21"></use>
            <use fill="none" xlink:href="#path-21"></use>
        </g>
        <g id=":$">
            <use fill="#000000" fill-rule="evenodd" sketch:type="MSShapeGroup" xlink:href="#path-22"></use>
            <use fill="none" xlink:href="#path-22"></use>
        </g>
        <g id="%)">
            <use fill="#000000" fill-rule="evenodd" sketch:type="MSShapeGroup" xlink:href="#path-23"></use>
            <use fill="none" xlink:href="#path-23"></use>
        </g>
        <g id="8}">
            <use fill="#000000" fill-rule="evenodd" sketch:type="MSShapeGroup" xlink:href="#path-24"></use>
            <use fill="none" xlink:href="#path-24"></use>
        </g>
        <g id=":>">
            <use fill="#000000" fill-rule="evenodd" sketch:type="MSShapeGroup" xlink:href="#path-25"></use>
            <use fill="none" xlink:href="#path-25"></use>
        </g>
        <g id=":)">
            <use fill="#000000" fill-rule="evenodd" sketch:type="MSShapeGroup" xlink:href="#path-26"></use>
            <use fill="none" xlink:href="#path-26"></use>
        </g>
        <g id="Oval-98-copy-3">
            <use fill="#000000" fill-rule="evenodd" sketch:type="MSShapeGroup" xlink:href="#path-27"></use>
            <use fill="none" xlink:href="#path-27"></use>
        </g>
        <g id=":#">
            <use fill="#000000" fill-rule="evenodd" sketch:type="MSShapeGroup" xlink:href="#path-28"></use>
            <use fill="none" xlink:href="#path-28"></use>
        </g>
    </g>
</svg>