<?xml version="1.0" encoding="UTF-8"?>
<svg width="947px" height="821px" viewBox="0 0 947 821" version="1.1" xmlns="http://www.w3.org/2000/svg" xmlns:xlink="http://www.w3.org/1999/xlink">
    <title>smileys</title>
    <desc>Created with Sketch.</desc>
    <defs></defs>
    <g id="Page-1" stroke="none" stroke-width="1" fill="none" fill-rule="evenodd">
        <g id="smileys">
            <g id="&lt;3">
                <g id="path-1-link" fill="#000000">
                    <path d="M69.5,141.097649 C69.5,141.097649 139,87.883792 139,49.5 C139,35.2209961 134.117188,0.5312501 102.707031,0.5312501 C71.296875,0.5312501 69.5,23.3281251 69.5,23.3281251 C69.5,23.3281251 63.5546875,0.531255 35.5273438,0.5312501 C7.5,0.5312457 0,36.0096661 0,49.5 C0,87.883792 69.5,141.097649 69.5,141.097649 Z" id="path-1"></path>
                </g>
                <path d="M69.5,141.097649 C69.5,141.097649 139,87.883792 139,49.5 C139,35.2209961 134.117188,0.5312501 102.707031,0.5312501 C71.296875,0.5312501 69.5,23.3281251 69.5,23.3281251 C69.5,23.3281251 63.5546875,0.531255 35.5273438,0.5312501 C7.5,0.5312457 0,36.0096661 0,49.5 C0,87.883792 69.5,141.097649 69.5,141.097649 Z" id="path-1"></path>
            </g>
            <g id="&lt;/3" transform="translate(0.000000, 170.000000)">
                <g id="path-2-link" fill="#000000">
                    <path d="M69.5,141.097649 C69.5,141.097649 139,87.883792 139,49.5 C139,35.220996 134.117188,0.53125 102.707031,0.53125 C89.5075714,0.53125 81.5375933,4.557006 76.7328618,9.225039 C75.1720677,10.741427 90.7005543,31.495638 91.1875,45.591797 C91.712824,60.798926 59.90625,63.84961 72.3027344,86.822266 C57.0605469,76.001953 68.0722649,64.037109 72.3027344,52.667969 C76.5332031,41.298828 69.5,23.328125 69.5,23.328125 C69.5,23.328125 63.5546875,0.531255 35.5273438,0.53125 C7.5,0.531246 0,36.009666 0,49.5 C0,87.883792 69.5,141.097649 69.5,141.097649 Z" id="path-2"></path>
                </g>
                <path d="M69.5,141.097649 C69.5,141.097649 139,87.883792 139,49.5 C139,35.220996 134.117188,0.53125 102.707031,0.53125 C89.5075714,0.53125 81.5375933,4.557006 76.7328618,9.225039 C75.1720677,10.741427 90.7005543,31.495638 91.1875,45.591797 C91.712824,60.798926 59.90625,63.84961 72.3027344,86.822266 C57.0605469,76.001953 68.0722649,64.037109 72.3027344,52.667969 C76.5332031,41.298828 69.5,23.328125 69.5,23.328125 C69.5,23.328125 63.5546875,0.531255 35.5273438,0.53125 C7.5,0.531246 0,36.009666 0,49.5 C0,87.883792 69.5,141.097649 69.5,141.097649 Z" id="path-2"></path>
            </g>
            <g id=":)" transform="translate(167.000000, 175.000000)">
                <g id="path-3-link" fill="#000000">
                    <path d="M70,140 C108.659934,140 140,108.659934 140,70 C140,31.340066 108.659934,0 70,0 C31.340066,0 0,31.340066 0,70 C0,108.659934 31.340066,140 70,140 Z M37,60 C45.284272,60 52,53.284272 52,45 C52,36.715728 45.284272,30 37,30 C28.715728,30 22,36.715728 22,45 C22,53.284272 28.715728,60 37,60 Z M103,60 C111.284272,60 118,53.284272 118,45 C118,36.715728 111.284272,30 103,30 C94.715728,30 88,36.715728 88,45 C88,53.284272 94.715728,60 103,60 Z M70.5,128 C102.256375,128 128,103.262204 128,72.746584 C128,57.399569 128,111.369072 70.5,111.457757 C13,111.546441 13,57.577978 13,72.746584 C13,103.262204 38.743625,128 70.5,128 Z" id="path-3"></path>
                </g>
                <path d="M70,140 C108.659934,140 140,108.659934 140,70 C140,31.340066 108.659934,0 70,0 C31.340066,0 0,31.340066 0,70 C0,108.659934 31.340066,140 70,140 Z M37,60 C45.284272,60 52,53.284272 52,45 C52,36.715728 45.284272,30 37,30 C28.715728,30 22,36.715728 22,45 C22,53.284272 28.715728,60 37,60 Z M103,60 C111.284272,60 118,53.284272 118,45 C118,36.715728 111.284272,30 103,30 C94.715728,30 88,36.715728 88,45 C88,53.284272 94.715728,60 103,60 Z M70.5,128 C102.256375,128 128,103.262204 128,72.746584 C128,57.399569 128,111.369072 70.5,111.457757 C13,111.546441 13,57.577978 13,72.746584 C13,103.262204 38.743625,128 70.5,128 Z" id="path-3"></path>
            </g>
            <g id=":*" transform="translate(487.000000, 681.000000)">
                <g id="path-4-link" fill="#000000">
                    <path d="M117.699946,48 C117.896709,47.03067 118,46.027398 118,45 C118,36.715728 111.284272,30 103,30 C94.715728,30 88,36.715728 88,45 C88,46.027398 88.103291,47.03067 88.300054,48 C89.689865,41.153279 95.743126,36 103,36 C110.256874,36 116.310135,41.153279 117.699946,48 L117.699946,48 Z M51.699946,48 C51.896709,47.03067 52,46.027398 52,45 C52,36.715728 45.284272,30 37,30 C28.715728,30 22,36.715728 22,45 C22,46.027398 22.103291,47.03067 22.300054,48 C23.689865,41.153279 29.743126,36 37,36 C44.256874,36 50.310135,41.153279 51.699946,48 L51.699946,48 Z M70,140 C108.659934,140 140,108.659934 140,70 C140,31.340066 108.659934,0 70,0 C31.340066,0 0,31.340066 0,70 C0,108.659934 31.340066,140 70,140 Z M70.134994,118.702672 C80.799805,124.957031 90.305663,106.366111 90.305663,106.366111 C90.305663,106.366111 80.126954,87.066406 70.134994,97.255319 C59.722657,87.066406 49.605662,106.366111 49.605662,106.366111 C49.605662,106.366111 60.170899,124.957031 70.134994,118.702672 Z" id="path-4"></path>
                </g>
                <path d="M117.699946,48 C117.896709,47.03067 118,46.027398 118,45 C118,36.715728 111.284272,30 103,30 C94.715728,30 88,36.715728 88,45 C88,46.027398 88.103291,47.03067 88.300054,48 C89.689865,41.153279 95.743126,36 103,36 C110.256874,36 116.310135,41.153279 117.699946,48 L117.699946,48 Z M51.699946,48 C51.896709,47.03067 52,46.027398 52,45 C52,36.715728 45.284272,30 37,30 C28.715728,30 22,36.715728 22,45 C22,46.027398 22.103291,47.03067 22.300054,48 C23.689865,41.153279 29.743126,36 37,36 C44.256874,36 50.310135,41.153279 51.699946,48 L51.699946,48 Z M70,140 C108.659934,140 140,108.659934 140,70 C140,31.340066 108.659934,0 70,0 C31.340066,0 0,31.340066 0,70 C0,108.659934 31.340066,140 70,140 Z M70.134994,118.702672 C80.799805,124.957031 90.305663,106.366111 90.305663,106.366111 C90.305663,106.366111 80.126954,87.066406 70.134994,97.255319 C59.722657,87.066406 49.605662,106.366111 49.605662,106.366111 C49.605662,106.366111 60.170899,124.957031 70.134994,118.702672 Z" id="path-4"></path>
            </g>
            <g id=":O" transform="translate(647.000000, 511.000000)">
                <g id="path-5-link" fill="#000000">
                    <path d="M70,140 C108.659934,140 140,108.659934 140,70 C140,31.340066 108.659934,0 70,0 C31.340066,0 0,31.340066 0,70 C0,108.659934 31.340066,140 70,140 Z M37,60 C45.284272,60 52,53.284272 52,45 C52,36.715728 45.284272,30 37,30 C28.715728,30 22,36.715728 22,45 C22,53.284272 28.715728,60 37,60 Z M103,60 C111.284272,60 118,53.284272 118,45 C118,36.715728 111.284272,30 103,30 C94.715728,30 88,36.715728 88,45 C88,53.284272 94.715728,60 103,60 Z M71,90 C79.284272,90 86,83.284272 86,75 C86,66.715728 79.284272,60 71,60 C62.715728,60 56,66.715728 56,75 C56,83.284272 62.715728,90 71,90 Z M70.500001,135.779294 C116.183591,135.779289 148.074221,83.508793 128,72.746584 C107.925778,61.984375 106.771485,102.123841 70.500001,102.035156 C34.228517,101.946469 30.474608,59.624027 12.785156,72.746584 C-4.904297,85.869141 24.816411,135.779297 70.500001,135.779294 Z M70,125 C98.718808,125 122,103 122,83.083615 C121.999999,71.441053 122,111.369144 70,111.369141 C18,111.369137 17.999999,71.576397 18,83.083615 C18.000002,103 41.281192,125 70,125 Z" id="path-5"></path>
                </g>
                <path d="M70,140 C108.659934,140 140,108.659934 140,70 C140,31.340066 108.659934,0 70,0 C31.340066,0 0,31.340066 0,70 C0,108.659934 31.340066,140 70,140 Z M37,60 C45.284272,60 52,53.284272 52,45 C52,36.715728 45.284272,30 37,30 C28.715728,30 22,36.715728 22,45 C22,53.284272 28.715728,60 37,60 Z M103,60 C111.284272,60 118,53.284272 118,45 C118,36.715728 111.284272,30 103,30 C94.715728,30 88,36.715728 88,45 C88,53.284272 94.715728,60 103,60 Z M71,90 C79.284272,90 86,83.284272 86,75 C86,66.715728 79.284272,60 71,60 C62.715728,60 56,66.715728 56,75 C56,83.284272 62.715728,90 71,90 Z M70.500001,135.779294 C116.183591,135.779289 148.074221,83.508793 128,72.746584 C107.925778,61.984375 106.771485,102.123841 70.500001,102.035156 C34.228517,101.946469 30.474608,59.624027 12.785156,72.746584 C-4.904297,85.869141 24.816411,135.779297 70.500001,135.779294 Z M70,125 C98.718808,125 122,103 122,83.083615 C121.999999,71.441053 122,111.369144 70,111.369141 C18,111.369137 17.999999,71.576397 18,83.083615 C18.000002,103 41.281192,125 70,125 Z" id="path-5"></path>
            </g>
            <g id="@)" transform="translate(487.000000, 511.000000)">
                <g id="path-6-link" fill="#000000">
                    <path d="M96.302266,44.660614 C96.837387,41.630519 99.40868,39.333333 102.5,39.333333 C105.979394,39.333333 108.8,42.243482 108.8,45.833333 C108.8,46.003971 108.819119,46.170002 108.855267,46.32927 C108.749143,52.103025 104.153571,56.75 98.5,56.75 C92.887475,56.75 88.317642,52.170256 88.147753,46.454846 L88.147753,46.454846 C88.196303,46.278101 88.222222,46.092062 88.222222,45.9 C88.222222,37.781414 94.838458,31.2 103,31.2 C111.161542,31.2 117.777778,37.781414 117.777778,45.9 C117.777778,47.059798 118.722954,48 119.888889,48 C121.054823,48 122,47.059798 122,45.9 C122,35.461818 113.493411,27 103,27 C92.506589,27 84,35.461818 84,45.9 C84,45.937336 84.00098,45.974445 84.002914,46.011302 C84.00098,46.04895 84,46.086858 84,46.125 C84,54.340236 90.491871,61 98.5,61 C106.508129,61 113,54.340236 113,46.125 C113,46.076295 112.998403,46.027972 112.995259,45.980085 L112.995259,45.980085 C112.998403,45.931587 113,45.882653 113,45.833333 C113,39.850248 108.29899,35 102.5,35 C97.158519,35 92.748603,39.115121 92.086013,44.440212 C92.03002,44.617845 92,44.805686 92,45 C92,45.115509 92.003536,45.230257 92.010514,45.344154 C92.003529,45.506312 92,45.669398 92,45.833333 C92,46.325351 92.158955,46.779065 92.426771,47.142791 C93.361287,49.398286 95.728006,51 98.5,51 C102.089851,51 105,48.313709 105,45 C105,43.895431 104.02995,43 102.833333,43 C101.636716,43 100.666667,43.895431 100.666667,45 C100.666667,46.10457 99.696617,47 98.5,47 C97.303383,47 96.333333,46.10457 96.333333,45 C96.333333,44.884314 96.322693,44.770923 96.302266,44.660614 Z M26.086013,45.440212 C26.748603,40.115121 31.158519,36 36.5,36 C41.886419,36 46.325533,40.184654 46.929913,45.574869 C46.975628,45.750335 47,45.934748 47,46.125 C47,46.252618 46.998433,46.379862 46.995319,46.50671 C46.998432,46.615192 47,46.724074 47,46.833333 C47,46.981919 46.985503,47.127012 46.95789,47.267187 C46.389305,54.948747 40.13351,61 32.5,61 C24.491871,61 18,54.340236 18,46.125 C18,46.086858 18.00098,46.04895 18.002914,46.011302 L18.002914,46.011302 C18.00098,45.974445 18,45.937336 18,45.9 C18,35.461818 26.506589,27 37,27 C47.493411,27 56,35.461818 56,45.9 C56,47.059798 55.054823,48 53.888889,48 C52.722954,48 51.777778,47.059798 51.777778,45.9 C51.777778,37.781414 45.161542,31.2 37,31.2 C28.838458,31.2 22.222222,37.781414 22.222222,45.9 C22.222222,46.092062 22.196303,46.278101 22.147753,46.454846 C22.317642,52.170256 26.887475,56.75 32.5,56.75 C37.902317,56.75 42.338584,52.506885 42.814819,47.09207 L42.814819,47.09207 C42.805034,47.007232 42.8,46.920889 42.8,46.833333 C42.8,43.243482 39.979394,40.333333 36.5,40.333333 C33.40868,40.333333 30.837387,42.630519 30.302266,45.660614 C30.322693,45.770923 30.333333,45.884314 30.333333,46 C30.333333,47.10457 31.303383,48 32.5,48 C33.696617,48 34.666667,47.10457 34.666667,46 C34.666667,44.895431 35.636716,44 36.833333,44 C38.02995,44 39,44.895431 39,46 C39,49.313709 36.089851,52 32.5,52 C29.728006,52 27.361287,50.398286 26.426771,48.142791 C26.158955,47.779065 26,47.325351 26,46.833333 C26,46.669398 26.003529,46.506312 26.010514,46.344154 C26.003536,46.230257 26,46.115509 26,46 C26,45.805686 26.03002,45.617845 26.086013,45.440212 L26.086013,45.440212 Z M136.795384,49 C138.877523,55.629288 140,62.68356 140,70 C140,108.659934 108.659934,140 70,140 C31.340066,140 0,108.659934 0,70 C0,62.68356 1.122477,55.629288 3.204616,49 L14.346601,49 C16.239776,59.795786 25.661789,68 37,68 C48.338211,68 57.760224,59.795786 59.653399,49 L79.346601,49 C81.239776,59.795786 90.661789,68 102,68 C113.338211,68 122.760224,59.795786 124.653399,49 L136.795384,49 L136.795384,49 Z M133.729069,40.999997 C122.704893,16.812682 98.315854,0 70,0 C41.684146,0 17.295107,16.812682 6.270931,40.999997 L14.346601,41 C16.239776,30.204214 25.661789,22 37,22 C48.338211,22 57.760224,30.204214 59.653399,41 L79.346601,41 C81.239776,30.204214 90.661789,22 102,22 C113.338211,22 122.760224,30.204214 124.653399,41 L133.729084,41 L133.729069,40.999997 Z M70.5,128 C102.256375,128 128,103.262204 128,72.746584 C128,57.399569 128,111.369072 70.5,111.457757 C13,111.546441 13,57.577978 13,72.746584 C13,103.262204 38.743625,128 70.5,128 Z" id="path-6"></path>
                </g>
                <path d="M96.302266,44.660614 C96.837387,41.630519 99.40868,39.333333 102.5,39.333333 C105.979394,39.333333 108.8,42.243482 108.8,45.833333 C108.8,46.003971 108.819119,46.170002 108.855267,46.32927 C108.749143,52.103025 104.153571,56.75 98.5,56.75 C92.887475,56.75 88.317642,52.170256 88.147753,46.454846 L88.147753,46.454846 C88.196303,46.278101 88.222222,46.092062 88.222222,45.9 C88.222222,37.781414 94.838458,31.2 103,31.2 C111.161542,31.2 117.777778,37.781414 117.777778,45.9 C117.777778,47.059798 118.722954,48 119.888889,48 C121.054823,48 122,47.059798 122,45.9 C122,35.461818 113.493411,27 103,27 C92.506589,27 84,35.461818 84,45.9 C84,45.937336 84.00098,45.974445 84.002914,46.011302 C84.00098,46.04895 84,46.086858 84,46.125 C84,54.340236 90.491871,61 98.5,61 C106.508129,61 113,54.340236 113,46.125 C113,46.076295 112.998403,46.027972 112.995259,45.980085 L112.995259,45.980085 C112.998403,45.931587 113,45.882653 113,45.833333 C113,39.850248 108.29899,35 102.5,35 C97.158519,35 92.748603,39.115121 92.086013,44.440212 C92.03002,44.617845 92,44.805686 92,45 C92,45.115509 92.003536,45.230257 92.010514,45.344154 C92.003529,45.506312 92,45.669398 92,45.833333 C92,46.325351 92.158955,46.779065 92.426771,47.142791 C93.361287,49.398286 95.728006,51 98.5,51 C102.089851,51 105,48.313709 105,45 C105,43.895431 104.02995,43 102.833333,43 C101.636716,43 100.666667,43.895431 100.666667,45 C100.666667,46.10457 99.696617,47 98.5,47 C97.303383,47 96.333333,46.10457 96.333333,45 C96.333333,44.884314 96.322693,44.770923 96.302266,44.660614 Z M26.086013,45.440212 C26.748603,40.115121 31.158519,36 36.5,36 C41.886419,36 46.325533,40.184654 46.929913,45.574869 C46.975628,45.750335 47,45.934748 47,46.125 C47,46.252618 46.998433,46.379862 46.995319,46.50671 C46.998432,46.615192 47,46.724074 47,46.833333 C47,46.981919 46.985503,47.127012 46.95789,47.267187 C46.389305,54.948747 40.13351,61 32.5,61 C24.491871,61 18,54.340236 18,46.125 C18,46.086858 18.00098,46.04895 18.002914,46.011302 L18.002914,46.011302 C18.00098,45.974445 18,45.937336 18,45.9 C18,35.461818 26.506589,27 37,27 C47.493411,27 56,35.461818 56,45.9 C56,47.059798 55.054823,48 53.888889,48 C52.722954,48 51.777778,47.059798 51.777778,45.9 C51.777778,37.781414 45.161542,31.2 37,31.2 C28.838458,31.2 22.222222,37.781414 22.222222,45.9 C22.222222,46.092062 22.196303,46.278101 22.147753,46.454846 C22.317642,52.170256 26.887475,56.75 32.5,56.75 C37.902317,56.75 42.338584,52.506885 42.814819,47.09207 L42.814819,47.09207 C42.805034,47.007232 42.8,46.920889 42.8,46.833333 C42.8,43.243482 39.979394,40.333333 36.5,40.333333 C33.40868,40.333333 30.837387,42.630519 30.302266,45.660614 C30.322693,45.770923 30.333333,45.884314 30.333333,46 C30.333333,47.10457 31.303383,48 32.5,48 C33.696617,48 34.666667,47.10457 34.666667,46 C34.666667,44.895431 35.636716,44 36.833333,44 C38.02995,44 39,44.895431 39,46 C39,49.313709 36.089851,52 32.5,52 C29.728006,52 27.361287,50.398286 26.426771,48.142791 C26.158955,47.779065 26,47.325351 26,46.833333 C26,46.669398 26.003529,46.506312 26.010514,46.344154 C26.003536,46.230257 26,46.115509 26,46 C26,45.805686 26.03002,45.617845 26.086013,45.440212 L26.086013,45.440212 Z M136.795384,49 C138.877523,55.629288 140,62.68356 140,70 C140,108.659934 108.659934,140 70,140 C31.340066,140 0,108.659934 0,70 C0,62.68356 1.122477,55.629288 3.204616,49 L14.346601,49 C16.239776,59.795786 25.661789,68 37,68 C48.338211,68 57.760224,59.795786 59.653399,49 L79.346601,49 C81.239776,59.795786 90.661789,68 102,68 C113.338211,68 122.760224,59.795786 124.653399,49 L136.795384,49 L136.795384,49 Z M133.729069,40.999997 C122.704893,16.812682 98.315854,0 70,0 C41.684146,0 17.295107,16.812682 6.270931,40.999997 L14.346601,41 C16.239776,30.204214 25.661789,22 37,22 C48.338211,22 57.760224,30.204214 59.653399,41 L79.346601,41 C81.239776,30.204214 90.661789,22 102,22 C113.338211,22 122.760224,30.204214 124.653399,41 L133.729084,41 L133.729069,40.999997 Z M70.5,128 C102.256375,128 128,103.262204 128,72.746584 C128,57.399569 128,111.369072 70.5,111.457757 C13,111.546441 13,57.577978 13,72.746584 C13,103.262204 38.743625,128 70.5,128 Z" id="path-6"></path>
            </g>
            <g id=":/" transform="translate(487.000000, 171.000000)">
                <g id="path-7-link" fill="#000000">
                    <path d="M117.699946,35 C117.896709,34.03067 118,33.027398 118,32 C118,23.715728 111.284272,17 103,17 C94.715728,17 88,23.715728 88,32 C88,33.027398 88.103291,34.03067 88.300054,35 C89.689865,28.153279 95.743126,23 103,23 C110.256874,23 116.310135,28.153279 117.699946,35 L117.699946,35 L117.699946,35 Z M70,140 C108.659934,140 140,108.659934 140,70 C140,31.340066 108.659934,0 70,0 C31.340066,0 0,31.340066 0,70 C0,108.659934 31.340066,140 70,140 L70,140 Z M37,60 C45.284272,60 52,53.284272 52,45 C52,36.715728 45.284272,30 37,30 C28.715728,30 22,36.715728 22,45 C22,53.284272 28.715728,60 37,60 L37,60 Z M103,60 C111.284272,60 118,53.284272 118,45 C118,36.715728 111.284272,30 103,30 C94.715728,30 88,36.715728 88,45 C88,53.284272 94.715728,60 103,60 Z M45.00742,110 C43.346468,110 42,111.346517 42,113 C42,114.656854 43.345539,116 45.00742,116 L74.99258,116 C76.653532,116 78,114.653483 78,113 C78,111.343146 76.654461,110 74.99258,110 L45.00742,110 Z" id="path-7"></path>
                </g>
                <path d="M117.699946,35 C117.896709,34.03067 118,33.027398 118,32 C118,23.715728 111.284272,17 103,17 C94.715728,17 88,23.715728 88,32 C88,33.027398 88.103291,34.03067 88.300054,35 C89.689865,28.153279 95.743126,23 103,23 C110.256874,23 116.310135,28.153279 117.699946,35 L117.699946,35 L117.699946,35 Z M70,140 C108.659934,140 140,108.659934 140,70 C140,31.340066 108.659934,0 70,0 C31.340066,0 0,31.340066 0,70 C0,108.659934 31.340066,140 70,140 L70,140 Z M37,60 C45.284272,60 52,53.284272 52,45 C52,36.715728 45.284272,30 37,30 C28.715728,30 22,36.715728 22,45 C22,53.284272 28.715728,60 37,60 L37,60 Z M103,60 C111.284272,60 118,53.284272 118,45 C118,36.715728 111.284272,30 103,30 C94.715728,30 88,36.715728 88,45 C88,53.284272 94.715728,60 103,60 Z M45.00742,110 C43.346468,110 42,111.346517 42,113 C42,114.656854 43.345539,116 45.00742,116 L74.99258,116 C76.653532,116 78,114.653483 78,113 C78,111.343146 76.654461,110 74.99258,110 L45.00742,110 Z" id="path-7"></path>
            </g>
            <g id=":@" transform="translate(487.000000, 341.000000)">
                <g id="path-8-link" fill="#000000">
                    <path d="M70,140 C108.659934,140 140,108.659934 140,70 C140,31.340066 108.659934,0 70,0 C31.340066,0 0,31.340066 0,70 C0,108.659934 31.340066,140 70,140 Z M37,60 C45.284272,60 52,53.284272 52,45 C52,36.715728 45.284272,30 37,30 C28.715728,30 22,36.715728 22,45 C22,53.284272 28.715728,60 37,60 Z M103,60 C111.284272,60 118,53.284272 118,45 C118,36.715728 111.284272,30 103,30 C94.715728,30 88,36.715728 88,45 C88,53.284272 94.715728,60 103,60 Z M70,130 C83.807119,130 95,121.045696 95,110 C95,98.954304 83.807119,90 70,90 C56.192881,90 45,98.954304 45,110 C45,121.045696 56.192881,130 70,130 Z" id="path-8"></path>
                </g>
                <path d="M70,140 C108.659934,140 140,108.659934 140,70 C140,31.340066 108.659934,0 70,0 C31.340066,0 0,31.340066 0,70 C0,108.659934 31.340066,140 70,140 Z M37,60 C45.284272,60 52,53.284272 52,45 C52,36.715728 45.284272,30 37,30 C28.715728,30 22,36.715728 22,45 C22,53.284272 28.715728,60 37,60 Z M103,60 C111.284272,60 118,53.284272 118,45 C118,36.715728 111.284272,30 103,30 C94.715728,30 88,36.715728 88,45 C88,53.284272 94.715728,60 103,60 Z M70,130 C83.807119,130 95,121.045696 95,110 C95,98.954304 83.807119,90 70,90 C56.192881,90 45,98.954304 45,110 C45,121.045696 56.192881,130 70,130 Z" id="path-8"></path>
            </g>
            <g id="8|" transform="translate(327.000000, 511.000000)">
                <g id="path-9-link" fill="#000000">
                    <path d="M140,70 C140,31.340066 108.659934,0 70,0 C31.340066,0 0,31.340066 0,70 C0,108.659934 31.340066,140 70,140 C108.659934,140 140,108.659934 140,70 Z M37,30 C45.284272,30 52,36.715728 52,45 C52,53.284272 45.284272,60 37,60 C28.715728,60 22,53.284272 22,45 C30.284272,45 37,38.284272 37,30 Z M103,30 C111.284272,30 118,36.715728 118,45 C118,53.284272 111.284272,60 103,60 C94.715728,60 88,53.284272 88,45 C96.284272,45 103,38.284272 103,30 Z M74.00742,110 C72.346468,110 71,111.346517 71,113 C71,114.656854 72.345539,116 74.00742,116 L103.99258,116 C105.653532,116 107,114.653483 107,113 C107,111.343146 105.654461,110 103.99258,110 L74.00742,110 Z" id="path-9"></path>
                </g>
                <path d="M140,70 C140,31.340066 108.659934,0 70,0 C31.340066,0 0,31.340066 0,70 C0,108.659934 31.340066,140 70,140 C108.659934,140 140,108.659934 140,70 Z M37,30 C45.284272,30 52,36.715728 52,45 C52,53.284272 45.284272,60 37,60 C28.715728,60 22,53.284272 22,45 C30.284272,45 37,38.284272 37,30 Z M103,30 C111.284272,30 118,36.715728 118,45 C118,53.284272 111.284272,60 103,60 C94.715728,60 88,53.284272 88,45 C96.284272,45 103,38.284272 103,30 Z M74.00742,110 C72.346468,110 71,111.346517 71,113 C71,114.656854 72.345539,116 74.00742,116 L103.99258,116 C105.653532,116 107,114.653483 107,113 C107,111.343146 105.654461,110 103.99258,110 L74.00742,110 Z" id="path-9"></path>
            </g>
            <g id=":|" transform="translate(807.000000, 171.000000)">
                <g id="path-10-link" fill="#000000">
                    <path d="M70,140 C108.659934,140 140,108.659934 140,70 C140,31.340066 108.659934,0 70,0 C31.340066,0 0,31.340066 0,70 C0,108.659934 31.340066,140 70,140 Z M37,60 C45.284272,60 52,53.284272 52,45 L22,45 C22,53.284272 28.715728,60 37,60 Z M103,60 C111.284272,60 118,53.284272 118,45 L88,45 C88,53.284272 94.715728,60 103,60 Z M127,70 C130.865993,70 134,66.865993 134,63 C134,59.134007 127,45.4375 127,45.4375 C127,45.4375 120,59.134007 120,63 C120,66.865993 123.134007,70 127,70 Z M55.00742,110 C53.346468,110 52,111.346517 52,113 C52,114.656854 53.345539,116 55.00742,116 L84.99258,116 C86.653532,116 88,114.653483 88,113 C88,111.343146 86.654461,110 84.99258,110 L55.00742,110 Z" id="path-10"></path>
                </g>
                <path d="M70,140 C108.659934,140 140,108.659934 140,70 C140,31.340066 108.659934,0 70,0 C31.340066,0 0,31.340066 0,70 C0,108.659934 31.340066,140 70,140 Z M37,60 C45.284272,60 52,53.284272 52,45 L22,45 C22,53.284272 28.715728,60 37,60 Z M103,60 C111.284272,60 118,53.284272 118,45 L88,45 C88,53.284272 94.715728,60 103,60 Z M127,70 C130.865993,70 134,66.865993 134,63 C134,59.134007 127,45.4375 127,45.4375 C127,45.4375 120,59.134007 120,63 C120,66.865993 123.134007,70 127,70 Z M55.00742,110 C53.346468,110 52,111.346517 52,113 C52,114.656854 53.345539,116 55.00742,116 L84.99258,116 C86.653532,116 88,114.653483 88,113 C88,111.343146 86.654461,110 84.99258,110 L55.00742,110 Z" id="path-10"></path>
            </g>
            <g id=":B" transform="translate(325.000000, 341.000000)">
                <g id="path-11-link" fill="#000000">
                    <path d="M133.729069,40.999997 C137.756317,49.835879 140,59.655919 140,70 C140,108.659934 108.659934,140 70,140 C31.340066,140 0,108.659934 0,70 C0,59.655919 2.243683,49.835879 6.270931,40.999997 L20,41 L20,51.99996 C20,56.41826 23.584935,60 27.99846,60 L52.00154,60 C56.418968,60 60,56.411097 60,51.99996 L60,41 L80,41 L80,51.99996 C80,56.41826 83.584935,60 87.99846,60 L112.00154,60 C116.418968,60 120,56.411097 120,51.99996 L120,41 L133.729084,41 L133.729069,40.999997 Z M131.748871,36.99999 C119.955678,14.97895 96.727101,0 70,0 C43.272899,0 20.044322,14.97895 8.251129,36.99999 L20.062062,37 C20.554705,33.059065 23.920124,30 27.99846,30 L52.00154,30 C56.076757,30 59.445542,33.053686 59.93805,37 L80.062062,37 C80.554705,33.059065 83.920124,30 87.99846,30 L112.00154,30 C116.076757,30 119.445542,33.053686 119.93805,37 L131.748877,37 L131.748871,36.99999 Z M70,130.746584 C92.091391,130.746584 110,113.28569 110,91.746584 L30,91.746584 C30,113.28569 47.908609,130.746584 70,130.746584 Z M50,94 L50,112.993706 C50,115.206321 51.791716,117 53.994783,117 L64.005217,117 C66.211475,117 68,115.214367 68,112.993706 L68,94 L50,94 Z M72,94 L72,112.993706 C72,115.206321 73.791716,117 75.994783,117 L86.005217,117 C88.211475,117 90,115.214367 90,112.993706 L90,94 L72,94 Z M88.999275,35 C86.790536,35 85,36.792468 85,38.99923 L85,51.00077 C85,53.209484 86.786795,55 88.999275,55 L111.000725,55 C113.209464,55 115,53.207532 115,51.00077 L115,38.99923 C115,36.790516 113.213205,35 111.000725,35 L88.999275,35 Z M28.999275,35 C26.790536,35 25,36.792468 25,38.99923 L25,51.00077 C25,53.209484 26.786795,55 28.999275,55 L51.000725,55 C53.209464,55 55,53.207532 55,51.00077 L55,38.99923 C55,36.790516 53.213205,35 51.000725,35 L28.999275,35 Z" id="path-11"></path>
                </g>
                <path d="M133.729069,40.999997 C137.756317,49.835879 140,59.655919 140,70 C140,108.659934 108.659934,140 70,140 C31.340066,140 0,108.659934 0,70 C0,59.655919 2.243683,49.835879 6.270931,40.999997 L20,41 L20,51.99996 C20,56.41826 23.584935,60 27.99846,60 L52.00154,60 C56.418968,60 60,56.411097 60,51.99996 L60,41 L80,41 L80,51.99996 C80,56.41826 83.584935,60 87.99846,60 L112.00154,60 C116.418968,60 120,56.411097 120,51.99996 L120,41 L133.729084,41 L133.729069,40.999997 Z M131.748871,36.99999 C119.955678,14.97895 96.727101,0 70,0 C43.272899,0 20.044322,14.97895 8.251129,36.99999 L20.062062,37 C20.554705,33.059065 23.920124,30 27.99846,30 L52.00154,30 C56.076757,30 59.445542,33.053686 59.93805,37 L80.062062,37 C80.554705,33.059065 83.920124,30 87.99846,30 L112.00154,30 C116.076757,30 119.445542,33.053686 119.93805,37 L131.748877,37 L131.748871,36.99999 Z M70,130.746584 C92.091391,130.746584 110,113.28569 110,91.746584 L30,91.746584 C30,113.28569 47.908609,130.746584 70,130.746584 Z M50,94 L50,112.993706 C50,115.206321 51.791716,117 53.994783,117 L64.005217,117 C66.211475,117 68,115.214367 68,112.993706 L68,94 L50,94 Z M72,94 L72,112.993706 C72,115.206321 73.791716,117 75.994783,117 L86.005217,117 C88.211475,117 90,115.214367 90,112.993706 L90,94 L72,94 Z M88.999275,35 C86.790536,35 85,36.792468 85,38.99923 L85,51.00077 C85,53.209484 86.786795,55 88.999275,55 L111.000725,55 C113.209464,55 115,53.207532 115,51.00077 L115,38.99923 C115,36.790516 113.213205,35 111.000725,35 L88.999275,35 Z M28.999275,35 C26.790536,35 25,36.792468 25,38.99923 L25,51.00077 C25,53.209484 26.786795,55 28.999275,55 L51.000725,55 C53.209464,55 55,53.207532 55,51.00077 L55,38.99923 C55,36.790516 53.213205,35 51.000725,35 L28.999275,35 Z" id="path-11"></path>
            </g>
            <g id="8)" transform="translate(7.000000, 511.000000)">
                <g id="path-12-link" fill="#000000">
                    <path d="M25.0979631,54 C25.0340586,53.647352 25,53.308041 25,53.009205 L25,50 L55,50 L55,53.009205 C55,53.308834 54.960493,53.647712 54.8897829,54 L25.0979631,54 Z M27.2875687,58 C28.7972876,59.27825 32.2577641,60.969726 40,60.969727 C47.7422388,60.969728 51.202715,59.278251 52.712433,58 L27.2875687,58 Z M25,46 L25,42 L55,42 L55,46 L25,46 Z M25,38 L25,36.990795 C25,35.898212 25.8916773,35 26.991617,35 L53.008383,35 C54.1021596,35 55,35.891309 55,36.990795 L55,38 L25,38 L25,38 Z M85.097963,54 C85.034059,53.647352 85,53.308041 85,53.009205 L85,50 L85,50 L115,50 L115,53.009205 C115,53.308834 114.960493,53.647712 114.889783,54 L85.097963,54 L85.097963,54 Z M87.287569,58 C88.797288,59.27825 92.257764,60.969726 100,60.969727 C107.742239,60.969728 111.202715,59.278251 112.712433,58 L87.287569,58 L87.287569,58 Z M85,46 L85,42 L85,42 L115,42 L115,46 L85,46 Z M85,38 L85,36.990795 C85,35.898212 85.891677,35 86.991617,35 L113.008383,35 C114.10216,35 115,35.891309 115,36.990795 L115,38 L85,38 L85,38 Z M80,36.746678 C77.901452,36.230741 72.9858845,35.106445 70,35.106445 C67.3144454,35.106445 62.1665445,36.248303 60,36.758609 L60,33.999275 C60,31.790536 58.2035752,30 55.9999745,30 L24.0000255,30 C21.7908724,30 20,31.786795 20,33.999275 L20,56.000725 C20,58.209464 21.4997888,60.962397 23.4552358,62.013871 C23.4552358,62.013871 27.8183594,65.828127 40,65.828125 C52.1816406,65.828125 56.5612808,62.00571 56.5612808,62.00571 C58.460433,60.897987 60,58.213205 60,56.000725 L60,40.743595 L60,40.743595 C62.1325868,40.211424 67.1634654,39.036133 70,39.036133 C72.8365346,39.036133 77.8674132,40.211424 80,40.743595 L80,56.000725 C80,58.209464 81.4997888,60.962397 83.4552358,62.013871 C83.4552358,62.013871 87.818359,65.828127 100,65.828125 C112.181641,65.828125 116.561281,62.00571 116.561281,62.00571 C118.460433,60.897987 120,58.213205 120,56.000725 L120,33.999275 C120,31.790536 118.203575,30 115.999974,30 L84.000026,30 C81.7908724,30 80,31.786795 80,33.999275 L80,36.746678 L80,36.746678 Z M70,140 C108.659934,140 140,108.659934 140,70 C140,31.340066 108.659934,0 70,0 C31.3400656,0 0,31.340066 0,70 C0,108.659934 31.3400656,140 70,140 Z M70.5,128 C102.256375,128 128,103.262204 128,72.746584 C128,57.399569 128,111.369072 70.5,111.457757 C13,111.546441 13,57.577978 13,72.746584 C13,103.262204 38.7436253,128 70.5,128 Z" id="path-12"></path>
                </g>
                <path d="M25.0979631,54 C25.0340586,53.647352 25,53.308041 25,53.009205 L25,50 L55,50 L55,53.009205 C55,53.308834 54.960493,53.647712 54.8897829,54 L25.0979631,54 Z M27.2875687,58 C28.7972876,59.27825 32.2577641,60.969726 40,60.969727 C47.7422388,60.969728 51.202715,59.278251 52.712433,58 L27.2875687,58 Z M25,46 L25,42 L55,42 L55,46 L25,46 Z M25,38 L25,36.990795 C25,35.898212 25.8916773,35 26.991617,35 L53.008383,35 C54.1021596,35 55,35.891309 55,36.990795 L55,38 L25,38 L25,38 Z M85.097963,54 C85.034059,53.647352 85,53.308041 85,53.009205 L85,50 L85,50 L115,50 L115,53.009205 C115,53.308834 114.960493,53.647712 114.889783,54 L85.097963,54 L85.097963,54 Z M87.287569,58 C88.797288,59.27825 92.257764,60.969726 100,60.969727 C107.742239,60.969728 111.202715,59.278251 112.712433,58 L87.287569,58 L87.287569,58 Z M85,46 L85,42 L85,42 L115,42 L115,46 L85,46 Z M85,38 L85,36.990795 C85,35.898212 85.891677,35 86.991617,35 L113.008383,35 C114.10216,35 115,35.891309 115,36.990795 L115,38 L85,38 L85,38 Z M80,36.746678 C77.901452,36.230741 72.9858845,35.106445 70,35.106445 C67.3144454,35.106445 62.1665445,36.248303 60,36.758609 L60,33.999275 C60,31.790536 58.2035752,30 55.9999745,30 L24.0000255,30 C21.7908724,30 20,31.786795 20,33.999275 L20,56.000725 C20,58.209464 21.4997888,60.962397 23.4552358,62.013871 C23.4552358,62.013871 27.8183594,65.828127 40,65.828125 C52.1816406,65.828125 56.5612808,62.00571 56.5612808,62.00571 C58.460433,60.897987 60,58.213205 60,56.000725 L60,40.743595 L60,40.743595 C62.1325868,40.211424 67.1634654,39.036133 70,39.036133 C72.8365346,39.036133 77.8674132,40.211424 80,40.743595 L80,56.000725 C80,58.209464 81.4997888,60.962397 83.4552358,62.013871 C83.4552358,62.013871 87.818359,65.828127 100,65.828125 C112.181641,65.828125 116.561281,62.00571 116.561281,62.00571 C118.460433,60.897987 120,58.213205 120,56.000725 L120,33.999275 C120,31.790536 118.203575,30 115.999974,30 L84.000026,30 C81.7908724,30 80,31.786795 80,33.999275 L80,36.746678 L80,36.746678 Z M70,140 C108.659934,140 140,108.659934 140,70 C140,31.340066 108.659934,0 70,0 C31.3400656,0 0,31.340066 0,70 C0,108.659934 31.3400656,140 70,140 Z M70.5,128 C102.256375,128 128,103.262204 128,72.746584 C128,57.399569 128,111.369072 70.5,111.457757 C13,111.546441 13,57.577978 13,72.746584 C13,103.262204 38.7436253,128 70.5,128 Z" id="path-12"></path>
            </g>
            <g id=":D" transform="translate(167.000000, 341.000000)">
                <g id="path-13-link" fill="#000000">
                    <path d="M70,140 C108.659934,140 140,108.659934 140,70 C140,31.340066 108.659934,0 70,0 C31.340066,0 0,31.340066 0,70 C0,108.659934 31.340066,140 70,140 Z M35,60 C43.284272,60 50,53.284272 50,45 C50,36.715728 43.284272,30 35,30 C26.715728,30 20,36.715728 20,45 C20,53.284272 26.715728,60 35,60 Z M101,60 C109.284272,60 116,53.284272 116,45 C116,36.715728 109.284272,30 101,30 C92.715728,30 86,36.715728 86,45 C86,53.284272 92.715728,60 101,60 Z M70,127.746584 C101.480232,127.746584 127,103.569962 127,73.746584 L13,73.746584 C13,103.569962 38.519768,127.746584 70,127.746584 Z" id="path-13"></path>
                </g>
                <path d="M70,140 C108.659934,140 140,108.659934 140,70 C140,31.340066 108.659934,0 70,0 C31.340066,0 0,31.340066 0,70 C0,108.659934 31.340066,140 70,140 Z M35,60 C43.284272,60 50,53.284272 50,45 C50,36.715728 43.284272,30 35,30 C26.715728,30 20,36.715728 20,45 C20,53.284272 26.715728,60 35,60 Z M101,60 C109.284272,60 116,53.284272 116,45 C116,36.715728 109.284272,30 101,30 C92.715728,30 86,36.715728 86,45 C86,53.284272 92.715728,60 101,60 Z M70,127.746584 C101.480232,127.746584 127,103.569962 127,73.746584 L13,73.746584 C13,103.569962 38.519768,127.746584 70,127.746584 Z" id="path-13"></path>
            </g>
            <g id="=;" transform="translate(828.000000, 1.000000)">
                <g id="path-14-link" fill="#000000">
                    <path d="M66.967033,82.7253779 L66.967033,62.4355322 C66.967033,56.3470196 71.896057,51.4285714 77.976316,51.4285714 L76.990717,51.4285714 C83.068704,51.4285714 88,56.3565556 88,62.4355322 L88,84.2857143 L88,90.872126 C88,100.541577 81.618709,108.724324 72.838379,111.430931 L72.838379,111.430931 C72.778887,111.429361 72.719204,111.428571 72.659341,111.428571 C68.963281,111.428571 65.967033,114.432213 65.967033,118.127302 L65.967033,131.118128 C63.894638,132.516544 61.39732,133.333333 58.709377,133.333333 L28.290623,133.333333 C25.603875,133.333333 23.106109,132.516614 21.032967,131.11774 L21.032967,118.127302 C21.032967,114.814619 18.624642,112.063561 15.472835,111.524356 L15.472835,111.524356 C6.533322,108.917453 0,100.657973 0,90.872126 L0,84.2857143 L0,69.0272779 L0,34.8025871 C0,28.9934161 4.70839,24.2857143 10.516484,24.2857143 C16.325854,24.2857143 21.032967,28.9942786 21.032967,34.8025871 L21.032967,63.8095238 L21.989011,63.8095238 L21.989011,15.7592846 C21.989011,9.68764 26.918035,4.7619048 32.998294,4.7619048 L32.012695,4.7619048 C38.090682,4.7619048 43.021978,9.6855994 43.021978,15.7592846 L43.021978,63.8095238 L43.978022,63.8095238 L43.978022,10.9973798 C43.978022,4.9257352 48.907046,0 54.987305,0 L54.001706,0 C60.079693,0 65.010989,4.9236947 65.010989,10.9973798 L65.010989,76.1904762 L64.967033,76.1904762 L64.967033,83.8095238 L65.034922,83.8095238 C64.84661,90.030986 62.495935,93.450561 57.706305,95.223377 C53.575359,96.752392 49.19455,97.043166 36.976378,97.043165 C36.437139,97.043165 36,97.481218 36,98.021583 C36,98.561948 36.437139,99 36.976378,99 C49.472289,99.000001 53.940068,98.703453 58.382906,97.058997 C64.176452,94.914594 67.000001,90.521731 67,82.9784171 C67,82.8909125 66.988537,82.8060908 66.967033,82.7253779 Z" id="path-14"></path>
                </g>
                <path d="M66.967033,82.7253779 L66.967033,62.4355322 C66.967033,56.3470196 71.896057,51.4285714 77.976316,51.4285714 L76.990717,51.4285714 C83.068704,51.4285714 88,56.3565556 88,62.4355322 L88,84.2857143 L88,90.872126 C88,100.541577 81.618709,108.724324 72.838379,111.430931 L72.838379,111.430931 C72.778887,111.429361 72.719204,111.428571 72.659341,111.428571 C68.963281,111.428571 65.967033,114.432213 65.967033,118.127302 L65.967033,131.118128 C63.894638,132.516544 61.39732,133.333333 58.709377,133.333333 L28.290623,133.333333 C25.603875,133.333333 23.106109,132.516614 21.032967,131.11774 L21.032967,118.127302 C21.032967,114.814619 18.624642,112.063561 15.472835,111.524356 L15.472835,111.524356 C6.533322,108.917453 0,100.657973 0,90.872126 L0,84.2857143 L0,69.0272779 L0,34.8025871 C0,28.9934161 4.70839,24.2857143 10.516484,24.2857143 C16.325854,24.2857143 21.032967,28.9942786 21.032967,34.8025871 L21.032967,63.8095238 L21.989011,63.8095238 L21.989011,15.7592846 C21.989011,9.68764 26.918035,4.7619048 32.998294,4.7619048 L32.012695,4.7619048 C38.090682,4.7619048 43.021978,9.6855994 43.021978,15.7592846 L43.021978,63.8095238 L43.978022,63.8095238 L43.978022,10.9973798 C43.978022,4.9257352 48.907046,0 54.987305,0 L54.001706,0 C60.079693,0 65.010989,4.9236947 65.010989,10.9973798 L65.010989,76.1904762 L64.967033,76.1904762 L64.967033,83.8095238 L65.034922,83.8095238 C64.84661,90.030986 62.495935,93.450561 57.706305,95.223377 C53.575359,96.752392 49.19455,97.043166 36.976378,97.043165 C36.437139,97.043165 36,97.481218 36,98.021583 C36,98.561948 36.437139,99 36.976378,99 C49.472289,99.000001 53.940068,98.703453 58.382906,97.058997 C64.176452,94.914594 67.000001,90.521731 67,82.9784171 C67,82.8909125 66.988537,82.8060908 66.967033,82.7253779 Z" id="path-14"></path>
            </g>
            <g id=":P" transform="translate(167.000000, 511.000000)">
                <g id="path-15-link" fill="#000000">
                    <path d="M70,140 C108.659934,140 140,108.659934 140,70 C140,31.340066 108.659934,0 70,0 C31.340066,0 0,31.340066 0,70 C0,108.659934 31.340066,140 70,140 Z M93,131 C95.209139,131 97,128.95851 97,126.440204 C97,123.921897 93,115 93,115 C93,115 89,123.921897 89,126.440204 C89,128.95851 90.790861,131 93,131 Z M35,60 C43.284272,60 50,53.284272 50,45 C50,36.715728 43.284272,30 35,30 C26.715728,30 20,36.715728 20,45 C20,53.284272 26.715728,60 35,60 Z M101,60 C109.284272,60 116,53.284272 116,45 C116,36.715728 109.284272,30 101,30 C92.715728,30 86,36.715728 86,45 C86,53.284272 92.715728,60 101,60 Z M70,91.539062 C55.899414,91.539063 49.600708,96.479188 49.600708,96.479188 C45.955238,98.423679 43,103.366293 43,107.5 L43,107.5 C43,111.642136 46.357539,115 50.508469,115 L89.491531,115 C93.638344,115 97,111.633707 97,107.5 L97,107.5 C97,103.357864 94.105744,98.318275 90.385889,96.473068 C90.385889,96.473068 84.100586,91.539062 70,91.539062 Z" id="path-15"></path>
                </g>
                <path d="M70,140 C108.659934,140 140,108.659934 140,70 C140,31.340066 108.659934,0 70,0 C31.340066,0 0,31.340066 0,70 C0,108.659934 31.340066,140 70,140 Z M93,131 C95.209139,131 97,128.95851 97,126.440204 C97,123.921897 93,115 93,115 C93,115 89,123.921897 89,126.440204 C89,128.95851 90.790861,131 93,131 Z M35,60 C43.284272,60 50,53.284272 50,45 C50,36.715728 43.284272,30 35,30 C26.715728,30 20,36.715728 20,45 C20,53.284272 26.715728,60 35,60 Z M101,60 C109.284272,60 116,53.284272 116,45 C116,36.715728 109.284272,30 101,30 C92.715728,30 86,36.715728 86,45 C86,53.284272 92.715728,60 101,60 Z M70,91.539062 C55.899414,91.539063 49.600708,96.479188 49.600708,96.479188 C45.955238,98.423679 43,103.366293 43,107.5 L43,107.5 C43,111.642136 46.357539,115 50.508469,115 L89.491531,115 C93.638344,115 97,111.633707 97,107.5 L97,107.5 C97,103.357864 94.105744,98.318275 90.385889,96.473068 C90.385889,96.473068 84.100586,91.539062 70,91.539062 Z" id="path-15"></path>
            </g>
            <g id=";)" transform="translate(167.000000, 1.000000)">
                <g id="path-16-link" fill="#000000">
                    <path d="M51.699946,42 C51.896709,42.9693298 52,43.9726025 52,45 C52,53.2842717 45.284272,60 37,60 C28.715728,60 22,53.2842717 22,45 C22,43.9726025 22.103291,42.9693298 22.300054,42 C23.689865,48.8467212 29.743126,54 37,54 C44.256874,54 50.310135,48.8467212 51.699946,42 L51.699946,42 Z M70,140 C108.659934,140 140,108.659934 140,70 C140,31.3400656 108.659934,0 70,0 C31.340066,0 0,31.3400656 0,70 C0,108.659934 31.340066,140 70,140 Z M103,60 C111.284272,60 118,53.2842717 118,45 C118,36.7157283 111.284272,30 103,30 C94.715728,30 88,36.7157283 88,45 C88,53.2842717 94.715728,60 103,60 Z M70.5,128 C102.256375,128 128,103.262204 128,72.7465839 C128,57.3995695 128,111.369072 70.5,111.457757 C13,111.546441 13,57.5779777 13,72.7465839 C13,103.262204 38.743625,128 70.5,128 Z" id="path-16"></path>
                </g>
                <path d="M51.699946,42 C51.896709,42.9693298 52,43.9726025 52,45 C52,53.2842717 45.284272,60 37,60 C28.715728,60 22,53.2842717 22,45 C22,43.9726025 22.103291,42.9693298 22.300054,42 C23.689865,48.8467212 29.743126,54 37,54 C44.256874,54 50.310135,48.8467212 51.699946,42 L51.699946,42 Z M70,140 C108.659934,140 140,108.659934 140,70 C140,31.3400656 108.659934,0 70,0 C31.340066,0 0,31.3400656 0,70 C0,108.659934 31.340066,140 70,140 Z M103,60 C111.284272,60 118,53.2842717 118,45 C118,36.7157283 111.284272,30 103,30 C94.715728,30 88,36.7157283 88,45 C88,53.2842717 94.715728,60 103,60 Z M70.5,128 C102.256375,128 128,103.262204 128,72.7465839 C128,57.3995695 128,111.369072 70.5,111.457757 C13,111.546441 13,57.5779777 13,72.7465839 C13,103.262204 38.743625,128 70.5,128 Z" id="path-16"></path>
            </g>
            <g id="|)" transform="translate(647.000000, 171.000000)">
                <g id="path-17-link" fill="#000000">
                    <path d="M117.699946,42 C117.896709,42.96933 118,43.972602 118,45 C118,53.284272 111.284272,60 103,60 C94.715728,60 88,53.284272 88,45 C88,43.972602 88.103291,42.96933 88.300054,42 C89.689865,48.846721 95.743126,54 103,54 C110.256874,54 116.310135,48.846721 117.699946,42 Z M51.699946,42 C51.896709,42.96933 52,43.972602 52,45 C52,53.284272 45.284272,60 37,60 C28.715728,60 22,53.284272 22,45 C22,43.972602 22.103291,42.96933 22.300054,42 C23.689865,48.846721 29.743126,54 37,54 C44.256874,54 50.310135,48.846721 51.699946,42 L51.699946,42 Z M70,140 C108.659934,140 140,108.659934 140,70 C140,31.340066 108.659934,0 70,0 C31.340066,0 0,31.340066 0,70 C0,108.659934 31.340066,140 70,140 Z M70,128 C78.284272,128 85,121.284272 85,113 C85,104.715728 78.284272,98 70,98 C61.715728,98 55,104.715728 55,113 C55,121.284272 61.715728,128 70,128 Z" id="path-17"></path>
                </g>
                <path d="M117.699946,42 C117.896709,42.96933 118,43.972602 118,45 C118,53.284272 111.284272,60 103,60 C94.715728,60 88,53.284272 88,45 C88,43.972602 88.103291,42.96933 88.300054,42 C89.689865,48.846721 95.743126,54 103,54 C110.256874,54 116.310135,48.846721 117.699946,42 Z M51.699946,42 C51.896709,42.96933 52,43.972602 52,45 C52,53.284272 45.284272,60 37,60 C28.715728,60 22,53.284272 22,45 C22,43.972602 22.103291,42.96933 22.300054,42 C23.689865,48.846721 29.743126,54 37,54 C44.256874,54 50.310135,48.846721 51.699946,42 L51.699946,42 Z M70,140 C108.659934,140 140,108.659934 140,70 C140,31.340066 108.659934,0 70,0 C31.340066,0 0,31.340066 0,70 C0,108.659934 31.340066,140 70,140 Z M70,128 C78.284272,128 85,121.284272 85,113 C85,104.715728 78.284272,98 70,98 C61.715728,98 55,104.715728 55,113 C55,121.284272 61.715728,128 70,128 Z" id="path-17"></path>
            </g>
            <g id="#0" transform="translate(647.000000, 341.000000)">
                <g id="path-18-link" fill="#000000">
                    <path d="M70,140 C108.659934,140 140,108.659934 140,70 C140,31.340066 108.659934,0 70,0 C31.340066,0 0,31.340066 0,70 C0,108.659934 31.340066,140 70,140 L70,140 Z M90,110 C90,98.954304 81.045696,90 70,90 C58.954304,90 50,98.954304 50,110 C50,121.045696 58.954304,130 70,130 C81.045696,130 90,121.045696 90,110 Z M52.063932,46.877864 L28.763932,58.527864 C26.29404,59.76281 25.292918,62.766175 26.527864,65.236068 C27.76281,67.70596 30.766175,68.707082 33.236068,67.472136 L65.236068,51.472136 C68.921311,49.629515 68.921311,44.370485 65.236068,42.527864 L33.236068,26.527864 C30.766175,25.292918 27.76281,26.29404 26.527864,28.763932 C25.292918,31.233825 26.29404,34.23719 28.763932,35.472136 L52.063932,46.877864 Z M89.284973,46.947136 L112.234973,35.472136 C114.704865,34.23719 115.705987,31.233825 114.471041,28.763932 C113.236094,26.29404 110.232729,25.292918 107.762837,26.527864 L75.762837,42.527864 C72.077594,44.370485 72.077594,49.629515 75.762837,51.472136 L107.762837,67.472136 C110.232729,68.707082 113.236094,67.70596 114.471041,65.236068 C115.705987,62.766175 114.704865,59.76281 112.234973,58.527864 L89.284973,46.947136 Z" id="path-18"></path>
                </g>
                <path d="M70,140 C108.659934,140 140,108.659934 140,70 C140,31.340066 108.659934,0 70,0 C31.340066,0 0,31.340066 0,70 C0,108.659934 31.340066,140 70,140 L70,140 Z M90,110 C90,98.954304 81.045696,90 70,90 C58.954304,90 50,98.954304 50,110 C50,121.045696 58.954304,130 70,130 C81.045696,130 90,121.045696 90,110 Z M52.063932,46.877864 L28.763932,58.527864 C26.29404,59.76281 25.292918,62.766175 26.527864,65.236068 C27.76281,67.70596 30.766175,68.707082 33.236068,67.472136 L65.236068,51.472136 C68.921311,49.629515 68.921311,44.370485 65.236068,42.527864 L33.236068,26.527864 C30.766175,25.292918 27.76281,26.29404 26.527864,28.763932 C25.292918,31.233825 26.29404,34.23719 28.763932,35.472136 L52.063932,46.877864 Z M89.284973,46.947136 L112.234973,35.472136 C114.704865,34.23719 115.705987,31.233825 114.471041,28.763932 C113.236094,26.29404 110.232729,25.292918 107.762837,26.527864 L75.762837,42.527864 C72.077594,44.370485 72.077594,49.629515 75.762837,51.472136 L107.762837,67.472136 C110.232729,68.707082 113.236094,67.70596 114.471041,65.236068 C115.705987,62.766175 114.704865,59.76281 112.234973,58.527864 L89.284973,46.947136 Z" id="path-18"></path>
            </g>
            <g id=":(" transform="translate(327.000000, 175.000000)">
                <g id="path-19-link" fill="#000000">
                    <path d="M115.893697,122.857523 C103.605641,133.535815 87.557717,140 70,140 C52.74547,140 36.949041,133.757135 24.746226,123.406921 C32.944425,113.719063 46.864501,104.578697 70.5,104.542243 C93.79294,104.506317 107.650036,113.341259 115.893697,122.857523 Z M121.397433,117.522107 C132.94375,105.04027 140,88.344173 140,70 C140,31.340066 108.659934,0 70,0 C31.340066,0 0,31.340066 0,70 C0,88.677953 7.315369,105.647309 19.237281,118.199243 C28.743026,100.275647 48.129658,88 70.5,88 C92.5875,88 111.766263,99.967192 121.397433,117.522107 Z M37,60 C45.284272,60 52,53.284272 52,45 C52,36.715728 45.284272,30 37,30 C28.715728,30 22,36.715728 22,45 C22,53.284272 28.715728,60 37,60 Z M103,60 C111.284272,60 118,53.284272 118,45 C118,36.715728 111.284272,30 103,30 C94.715728,30 88,36.715728 88,45 C88,53.284272 94.715728,60 103,60 Z" id="path-19"></path>
                </g>
                <path d="M115.893697,122.857523 C103.605641,133.535815 87.557717,140 70,140 C52.74547,140 36.949041,133.757135 24.746226,123.406921 C32.944425,113.719063 46.864501,104.578697 70.5,104.542243 C93.79294,104.506317 107.650036,113.341259 115.893697,122.857523 Z M121.397433,117.522107 C132.94375,105.04027 140,88.344173 140,70 C140,31.340066 108.659934,0 70,0 C31.340066,0 0,31.340066 0,70 C0,88.677953 7.315369,105.647309 19.237281,118.199243 C28.743026,100.275647 48.129658,88 70.5,88 C92.5875,88 111.766263,99.967192 121.397433,117.522107 Z M37,60 C45.284272,60 52,53.284272 52,45 C52,36.715728 45.284272,30 37,30 C28.715728,30 22,36.715728 22,45 C22,53.284272 28.715728,60 37,60 Z M103,60 C111.284272,60 118,53.284272 118,45 C118,36.715728 111.284272,30 103,30 C94.715728,30 88,36.715728 88,45 C88,53.284272 94.715728,60 103,60 Z" id="path-19"></path>
            </g>
            <g id="L)" transform="translate(667.000000, 1.000000)">
                <g id="path-20-link" fill="#000000">
                    <path d="M63.032967,57.9161034 L63.032967,10.9901567 C63.032967,4.9204607 58.101671,0 52.023684,0 L53.009283,0 C46.929024,0 42,4.9280137 42,10.9901567 L42,54.5948755 L42,54.5948755 C41.646952,49.1051792 37.084512,44.7619048 31.505495,44.7619048 C25.697401,44.7619048 20.989011,49.4742044 20.989011,55.28051 L20.989011,59.9658159 C20.50044,54.6104456 15.999388,50.4155299 10.516484,50.4155299 C4.70839,50.4155299 0,55.1278296 0,60.9341351 L0,85.125926 C0,90.935191 4.707113,95.644531 10.516484,95.644531 C16.324577,95.644531 21.032967,90.932232 21.032967,85.125926 L21.032967,80.4406201 L21.032967,80.4406201 C21.521538,85.7959904 26.02259,89.990906 31.505495,89.990906 C37.313588,89.990906 42.021978,85.2786064 42.021978,79.4723009 L42.021978,76.1904762 L42.032967,76.1904762 L42.032967,81.2863716 C42.032967,87.092677 37.324577,91.804977 31.516484,91.804977 C25.989564,91.804977 21.460324,87.54244 21.032967,82.125494 L21.032967,87.286372 C21.032967,93.092677 16.324577,97.804977 10.516484,97.804977 C4.707113,97.804977 0,93.095637 0,87.286372 L0,81.6431858 L0,81.6431858 L0,90.499923 C0,100.652341 7.037261,109.161228 16.501797,111.415342 C16.490994,111.451441 16.480357,111.487611 16.469885,111.523852 L16.469885,111.523852 C19.623139,112.061844 22.032967,114.813586 22.032967,118.127302 L22.032967,131.747013 C23.790739,132.756242 25.828604,133.333333 28.001925,133.333333 L57.701372,133.333333 C59.997609,133.333333 62.143234,132.687892 63.967033,131.568865 L63.967033,117.501167 C63.967033,114.091802 66.590108,111.296263 69.927569,111.022067 L69.927569,111.022067 C76.608327,108.931592 81.886996,103.670355 84.000014,97 L101.490471,97 C107.294724,97 112,92.300265 112,86.5 C112,80.7010101 107.293868,76 101.490471,76 L83.754765,76 L83.754765,76 L42.5,76 L42.5,76 L42.5,76 L63.016484,76 L80,76 L79.983509,75.9835087 C70.602248,75.9746023 63,68.36686 63,58.9835165 C63,58.625012 63.011097,58.2690994 63.032967,57.9161034 Z M42.021978,61.9047619 L42.021978,56.6093345 C42.029278,56.7701683 42.032967,56.9319435 42.032967,57.0945807 L42.032967,61.9047619 L42.021978,61.9047619 L42.021978,61.9047619 Z" id="path-20"></path>
                </g>
                <path d="M63.032967,57.9161034 L63.032967,10.9901567 C63.032967,4.9204607 58.101671,0 52.023684,0 L53.009283,0 C46.929024,0 42,4.9280137 42,10.9901567 L42,54.5948755 L42,54.5948755 C41.646952,49.1051792 37.084512,44.7619048 31.505495,44.7619048 C25.697401,44.7619048 20.989011,49.4742044 20.989011,55.28051 L20.989011,59.9658159 C20.50044,54.6104456 15.999388,50.4155299 10.516484,50.4155299 C4.70839,50.4155299 0,55.1278296 0,60.9341351 L0,85.125926 C0,90.935191 4.707113,95.644531 10.516484,95.644531 C16.324577,95.644531 21.032967,90.932232 21.032967,85.125926 L21.032967,80.4406201 L21.032967,80.4406201 C21.521538,85.7959904 26.02259,89.990906 31.505495,89.990906 C37.313588,89.990906 42.021978,85.2786064 42.021978,79.4723009 L42.021978,76.1904762 L42.032967,76.1904762 L42.032967,81.2863716 C42.032967,87.092677 37.324577,91.804977 31.516484,91.804977 C25.989564,91.804977 21.460324,87.54244 21.032967,82.125494 L21.032967,87.286372 C21.032967,93.092677 16.324577,97.804977 10.516484,97.804977 C4.707113,97.804977 0,93.095637 0,87.286372 L0,81.6431858 L0,81.6431858 L0,90.499923 C0,100.652341 7.037261,109.161228 16.501797,111.415342 C16.490994,111.451441 16.480357,111.487611 16.469885,111.523852 L16.469885,111.523852 C19.623139,112.061844 22.032967,114.813586 22.032967,118.127302 L22.032967,131.747013 C23.790739,132.756242 25.828604,133.333333 28.001925,133.333333 L57.701372,133.333333 C59.997609,133.333333 62.143234,132.687892 63.967033,131.568865 L63.967033,117.501167 C63.967033,114.091802 66.590108,111.296263 69.927569,111.022067 L69.927569,111.022067 C76.608327,108.931592 81.886996,103.670355 84.000014,97 L101.490471,97 C107.294724,97 112,92.300265 112,86.5 C112,80.7010101 107.293868,76 101.490471,76 L83.754765,76 L83.754765,76 L42.5,76 L42.5,76 L42.5,76 L63.016484,76 L80,76 L79.983509,75.9835087 C70.602248,75.9746023 63,68.36686 63,58.9835165 C63,58.625012 63.011097,58.2690994 63.032967,57.9161034 Z M42.021978,61.9047619 L42.021978,56.6093345 C42.029278,56.7701683 42.032967,56.9319435 42.032967,57.0945807 L42.032967,61.9047619 L42.021978,61.9047619 L42.021978,61.9047619 Z" id="path-20"></path>
            </g>
            <g id="x(" transform="translate(327.000000, 1.000000)">
                <g id="path-21-link" fill="#000000">
                    <path d="M51.815301,47.3606839 C50.683006,54.5233912 44.481068,60 37,60 C28.715728,60 22,53.2842717 22,45 C22,37.3917066 27.664466,31.1064208 35.006193,30.1313475 L51.815301,47.3606839 L51.815301,47.3606839 Z M104.993807,30.1313475 C112.335534,31.1064208 118,37.3917066 118,45 C118,53.2842717 111.284272,60 103,60 C95.518932,60 89.316994,54.5233912 88.184699,47.3606839 L104.993807,30.1313475 L104.993807,30.1313475 Z M70,140 C108.659934,140 140,108.659934 140,70 C140,31.3400656 108.659934,0 70,0 C31.340066,0 0,31.3400656 0,70 C0,108.659934 31.340066,140 70,140 Z M70,117 C92.091391,117 110,117.150265 110,105 C110,92.849735 92.091391,93 70,93 C47.908609,93 30,92.849735 30,105 C30,117.150265 47.908609,117 70,117 Z" id="path-21"></path>
                </g>
                <path d="M51.815301,47.3606839 C50.683006,54.5233912 44.481068,60 37,60 C28.715728,60 22,53.2842717 22,45 C22,37.3917066 27.664466,31.1064208 35.006193,30.1313475 L51.815301,47.3606839 L51.815301,47.3606839 Z M104.993807,30.1313475 C112.335534,31.1064208 118,37.3917066 118,45 C118,53.2842717 111.284272,60 103,60 C95.518932,60 89.316994,54.5233912 88.184699,47.3606839 L104.993807,30.1313475 L104.993807,30.1313475 Z M70,140 C108.659934,140 140,108.659934 140,70 C140,31.3400656 108.659934,0 70,0 C31.340066,0 0,31.3400656 0,70 C0,108.659934 31.340066,140 70,140 Z M70,117 C92.091391,117 110,117.150265 110,105 C110,92.849735 92.091391,93 70,93 C47.908609,93 30,92.849735 30,105 C30,117.150265 47.908609,117 70,117 Z" id="path-21"></path>
            </g>
            <g id=":$" transform="translate(487.000000, 1.000000)">
                <g id="path-22-link" fill="#000000">
                    <path d="M74.89802,101.367298 C71.878082,91.875831 62.99201,85 52.5,85 C39.521308,85 29,95.521308 29,108.5 C29,111.261424 31.238576,113.5 34,113.5 C36.761424,113.5 39,111.261424 39,108.5 C39,101.044155 45.044155,95 52.5,95 C58.276938,95 63.206374,98.628585 65.133468,103.730917 C68.183296,113.171564 77.044214,120 87.5,120 C100.478692,120 111,109.478692 111,96.5 C111,93.738576 108.761424,91.5 106,91.5 C103.238576,91.5 101,93.738576 101,96.5 C101,103.955845 94.955845,110 87.5,110 C81.783963,110 76.897653,106.447517 74.928476,101.429956 C74.920145,101.408727 74.909975,101.387841 74.89802,101.367298 Z M70,140 C108.659934,140 140,108.659934 140,70 C140,31.3400656 108.659934,0 70,0 C31.340066,0 0,31.3400656 0,70 C0,108.659934 31.340066,140 70,140 Z M37,60 C45.284272,60 52,53.2842717 52,45 C52,36.7157283 45.284272,30 37,30 C28.715728,30 22,36.7157283 22,45 C22,53.2842717 28.715728,60 37,60 Z M103,60 C111.284272,60 118,53.2842717 118,45 C118,36.7157283 111.284272,30 103,30 C94.715728,30 88,36.7157283 88,45 C88,53.2842717 94.715728,60 103,60 Z" id="path-22"></path>
                </g>
                <path d="M74.89802,101.367298 C71.878082,91.875831 62.99201,85 52.5,85 C39.521308,85 29,95.521308 29,108.5 C29,111.261424 31.238576,113.5 34,113.5 C36.761424,113.5 39,111.261424 39,108.5 C39,101.044155 45.044155,95 52.5,95 C58.276938,95 63.206374,98.628585 65.133468,103.730917 C68.183296,113.171564 77.044214,120 87.5,120 C100.478692,120 111,109.478692 111,96.5 C111,93.738576 108.761424,91.5 106,91.5 C103.238576,91.5 101,93.738576 101,96.5 C101,103.955845 94.955845,110 87.5,110 C81.783963,110 76.897653,106.447517 74.928476,101.429956 C74.920145,101.408727 74.909975,101.387841 74.89802,101.367298 Z M70,140 C108.659934,140 140,108.659934 140,70 C140,31.3400656 108.659934,0 70,0 C31.340066,0 0,31.3400656 0,70 C0,108.659934 31.340066,140 70,140 Z M37,60 C45.284272,60 52,53.2842717 52,45 C52,36.7157283 45.284272,30 37,30 C28.715728,30 22,36.7157283 22,45 C22,53.2842717 28.715728,60 37,60 Z M103,60 C111.284272,60 118,53.2842717 118,45 C118,36.7157283 111.284272,30 103,30 C94.715728,30 88,36.7157283 88,45 C88,53.2842717 94.715728,60 103,60 Z" id="path-22"></path>
            </g>
            <g id="%)" transform="translate(5.000000, 341.000000)">
                <g id="path-23-link" fill="#000000">
                    <path d="M140,70 C140,31.340066 108.659934,0 70,0 C31.3400656,0 0,31.340066 0,70 C0,108.659934 31.3400656,140 70,140 C108.659934,140 140,108.659934 140,70 Z M69.5,128 C101.256375,128 117,103.262204 117,92.746584 C116.999998,77.399569 116.999996,111.546448 69.5,111.457757 C22.0000037,111.369066 21.9999987,77.577978 22,92.746584 C22,103.262204 37.7436253,128 69.5,128 Z M52,45 C52,53.284272 45.2842717,60 37,60 C28.7157283,60 22,53.284272 22,45 C22,36.715728 28.7157283,30 37,30 C37,38.284272 43.7157283,45 52,45 Z M88,45 C88,36.715728 94.715728,30 103,30 C111.284272,30 118,36.715728 118,45 C118,53.284272 111.284272,60 103,60 C103,51.715728 96.284272,45 88,45 Z" id="path-23"></path>
                </g>
                <path d="M140,70 C140,31.340066 108.659934,0 70,0 C31.3400656,0 0,31.340066 0,70 C0,108.659934 31.3400656,140 70,140 C108.659934,140 140,108.659934 140,70 Z M69.5,128 C101.256375,128 117,103.262204 117,92.746584 C116.999998,77.399569 116.999996,111.546448 69.5,111.457757 C22.0000037,111.369066 21.9999987,77.577978 22,92.746584 C22,103.262204 37.7436253,128 69.5,128 Z M52,45 C52,53.284272 45.2842717,60 37,60 C28.7157283,60 22,53.284272 22,45 C22,36.715728 28.7157283,30 37,30 C37,38.284272 43.7157283,45 52,45 Z M88,45 C88,36.715728 94.715728,30 103,30 C111.284272,30 118,36.715728 118,45 C118,53.284272 111.284272,60 103,60 C103,51.715728 96.284272,45 88,45 Z" id="path-23"></path>
            </g>
            <g id="8}" transform="translate(327.000000, 681.000000)">
                <g id="path-24-link" fill="#000000">
                    <path d="M111.009023,63.33188 C108.556795,64.404751 105.847912,65 103,65 C91.954304,65 83,56.045696 83,45 C83,33.954304 91.954304,25 103,25 C114.045696,25 123,33.954304 123,45 C123,49.625605 121.429699,53.884447 118.793103,57.27252 C121.230928,58.034945 123,60.310878 123,63 C123,66.313709 120.313709,69 117,69 C113.797653,69 111.181261,66.491227 111.009023,63.33188 L111.009023,63.33188 Z M70,140 C108.659934,140 140,108.659934 140,70 C140,31.340066 108.659934,0 70,0 C31.340066,0 0,31.340066 0,70 C0,108.659934 31.340066,140 70,140 Z M37,60 C45.284272,60 52,53.284272 52,45 C52,36.715728 45.284272,30 37,30 C28.715728,30 22,36.715728 22,45 C22,53.284272 28.715728,60 37,60 Z M103,60 C111.284272,60 118,53.284272 118,45 C118,36.715728 111.284272,30 103,30 C94.715728,30 88,36.715728 88,45 C88,53.284272 94.715728,60 103,60 Z M69.5,88.136674 C82.597656,103.445724 129.521484,98.344901 129.521484,90.915214 C114.222656,90.915214 79.1875,68.077323 69.5,79.319511 C62.629883,68.077323 22.905273,90.915214 11.123047,90.915214 C11.123047,98.760917 56.977626,103.445722 69.5,88.136674 Z M115,63 C115,61.89543 115.89543,61 117,61 C118.10457,61 119,61.89543 119,63 C119,64.10457 118.10457,65 117,65 C115.89543,65 115,64.10457 115,63 Z" id="path-24"></path>
                </g>
                <path d="M111.009023,63.33188 C108.556795,64.404751 105.847912,65 103,65 C91.954304,65 83,56.045696 83,45 C83,33.954304 91.954304,25 103,25 C114.045696,25 123,33.954304 123,45 C123,49.625605 121.429699,53.884447 118.793103,57.27252 C121.230928,58.034945 123,60.310878 123,63 C123,66.313709 120.313709,69 117,69 C113.797653,69 111.181261,66.491227 111.009023,63.33188 L111.009023,63.33188 Z M70,140 C108.659934,140 140,108.659934 140,70 C140,31.340066 108.659934,0 70,0 C31.340066,0 0,31.340066 0,70 C0,108.659934 31.340066,140 70,140 Z M37,60 C45.284272,60 52,53.284272 52,45 C52,36.715728 45.284272,30 37,30 C28.715728,30 22,36.715728 22,45 C22,53.284272 28.715728,60 37,60 Z M103,60 C111.284272,60 118,53.284272 118,45 C118,36.715728 111.284272,30 103,30 C94.715728,30 88,36.715728 88,45 C88,53.284272 94.715728,60 103,60 Z M69.5,88.136674 C82.597656,103.445724 129.521484,98.344901 129.521484,90.915214 C114.222656,90.915214 79.1875,68.077323 69.5,79.319511 C62.629883,68.077323 22.905273,90.915214 11.123047,90.915214 C11.123047,98.760917 56.977626,103.445722 69.5,88.136674 Z M115,63 C115,61.89543 115.89543,61 117,61 C118.10457,61 119,61.89543 119,63 C119,64.10457 118.10457,65 117,65 C115.89543,65 115,64.10457 115,63 Z" id="path-24"></path>
            </g>
            <g id=":&gt;" transform="translate(7.000000, 681.000000)">
                <g id="path-25-link" fill="#000000">
                    <path d="M110.682308,13.028878 C99.21685,4.826921 85.172119,0 70,0 C54.8278808,0 40.78315,4.826921 29.3176917,13.028878 L29.3176917,13.028878 C24.2535598,13.382515 14.1643557,12.164356 2.3933983,0.393398 C7.7513667,18.456645 11.4447822,26.075026 13.2154188,29.058178 C4.900157,40.570924 0,54.713215 0,70 C0,108.659934 31.3400656,140 70,140 C108.659934,140 140,108.659934 140,70 C140,54.713215 135.099843,40.570924 126.784581,29.058178 C128.555218,26.075026 132.248633,18.456645 137.606602,0.393398 C125.835644,12.164356 115.74644,13.382515 110.682308,13.028878 Z M37,60 C45.2842717,60 52,53.284272 52,45 C52,36.715728 45.2842717,30 37,30 C28.7157283,30 22,36.715728 22,45 C22,53.284272 28.7157283,60 37,60 Z M103,60 C111.284272,60 118,53.284272 118,45 C118,36.715728 111.284272,30 103,30 C94.715728,30 88,36.715728 88,45 C88,53.284272 94.715728,60 103,60 Z M103,59 C103,59 108,52.731987 108,45 C108,37.268013 103,31 103,31 C103,31 98,37.268013 98,45 C98,52.731987 103,59 103,59 Z M37,59 C37,59 42,52.731987 42,45 C42,37.268013 37,31 37,31 C37,31 32,37.268013 32,45 C32,52.731987 37,59 37,59 Z M70,127.746584 C101.480232,127.746584 127,103.569962 127,73.746584 C127,73.746584 110.888672,94.886723 70,94.886719 C29.1113281,94.886716 13,73.746584 13,73.746584 C13,103.569962 38.5197677,127.746584 70,127.746584 Z" id="path-25"></path>
                </g>
                <path d="M110.682308,13.028878 C99.21685,4.826921 85.172119,0 70,0 C54.8278808,0 40.78315,4.826921 29.3176917,13.028878 L29.3176917,13.028878 C24.2535598,13.382515 14.1643557,12.164356 2.3933983,0.393398 C7.7513667,18.456645 11.4447822,26.075026 13.2154188,29.058178 C4.900157,40.570924 0,54.713215 0,70 C0,108.659934 31.3400656,140 70,140 C108.659934,140 140,108.659934 140,70 C140,54.713215 135.099843,40.570924 126.784581,29.058178 C128.555218,26.075026 132.248633,18.456645 137.606602,0.393398 C125.835644,12.164356 115.74644,13.382515 110.682308,13.028878 Z M37,60 C45.2842717,60 52,53.284272 52,45 C52,36.715728 45.2842717,30 37,30 C28.7157283,30 22,36.715728 22,45 C22,53.284272 28.7157283,60 37,60 Z M103,60 C111.284272,60 118,53.284272 118,45 C118,36.715728 111.284272,30 103,30 C94.715728,30 88,36.715728 88,45 C88,53.284272 94.715728,60 103,60 Z M103,59 C103,59 108,52.731987 108,45 C108,37.268013 103,31 103,31 C103,31 98,37.268013 98,45 C98,52.731987 103,59 103,59 Z M37,59 C37,59 42,52.731987 42,45 C42,37.268013 37,31 37,31 C37,31 32,37.268013 32,45 C32,52.731987 37,59 37,59 Z M70,127.746584 C101.480232,127.746584 127,103.569962 127,73.746584 C127,73.746584 110.888672,94.886723 70,94.886719 C29.1113281,94.886716 13,73.746584 13,73.746584 C13,103.569962 38.5197677,127.746584 70,127.746584 Z" id="path-25"></path>
            </g>
            <g id=":)" transform="translate(807.000000, 511.000000)">
                <g id="path-26-link" fill="#000000">
                    <path d="M70,105.773503 L42.192885,121.827948 C39.802536,123.208017 36.739696,122.391463 35.358984,120 C33.981081,117.613403 34.799338,114.549609 37.192885,113.167694 L60,100 L37.192885,86.832306 C34.802536,85.452237 33.978272,82.391463 35.358984,80 C36.736886,77.613403 39.799338,76.790137 42.192885,78.172052 L70,94.226497 L97.807115,78.172052 C100.197464,76.791983 103.260304,77.608537 104.641016,80 C106.018919,82.386597 105.200662,85.450391 102.807115,86.832306 L80,100 L102.807115,113.167694 C105.197464,114.547763 106.021728,117.608537 104.641016,120 C103.263114,122.386597 100.200662,123.209863 97.807115,121.827948 L70,105.773503 Z M117.058646,57.24181 C114.932747,62.941114 109.440376,67 103,67 C96.559624,67 91.067253,62.941114 88.941354,57.24181 C92.239961,61.361584 97.311863,64 103,64 C108.688137,64 113.760039,61.361584 117.058648,57.241807 L117.058646,57.24181 Z M51.058646,57.24181 C48.932747,62.941114 43.440376,67 37,67 C30.559624,67 25.067253,62.941114 22.941354,57.24181 C26.239961,61.361584 31.311863,64 37,64 C42.688137,64 47.760039,61.361584 51.058648,57.241807 L51.058646,57.24181 Z M70,140 C108.659934,140 140,108.659934 140,70 C140,31.340066 108.659934,0 70,0 C31.340066,0 0,31.340066 0,70 C0,108.659934 31.340066,140 70,140 Z M37,60 C45.284272,60 52,53.284272 52,45 C52,36.715728 45.284272,30 37,30 C28.715728,30 22,36.715728 22,45 C22,53.284272 28.715728,60 37,60 Z M103,60 C111.284272,60 118,53.284272 118,45 C118,36.715728 111.284272,30 103,30 C94.715728,30 88,36.715728 88,45 C88,53.284272 94.715728,60 103,60 Z" id="path-26"></path>
                </g>
                <path d="M70,105.773503 L42.192885,121.827948 C39.802536,123.208017 36.739696,122.391463 35.358984,120 C33.981081,117.613403 34.799338,114.549609 37.192885,113.167694 L60,100 L37.192885,86.832306 C34.802536,85.452237 33.978272,82.391463 35.358984,80 C36.736886,77.613403 39.799338,76.790137 42.192885,78.172052 L70,94.226497 L97.807115,78.172052 C100.197464,76.791983 103.260304,77.608537 104.641016,80 C106.018919,82.386597 105.200662,85.450391 102.807115,86.832306 L80,100 L102.807115,113.167694 C105.197464,114.547763 106.021728,117.608537 104.641016,120 C103.263114,122.386597 100.200662,123.209863 97.807115,121.827948 L70,105.773503 Z M117.058646,57.24181 C114.932747,62.941114 109.440376,67 103,67 C96.559624,67 91.067253,62.941114 88.941354,57.24181 C92.239961,61.361584 97.311863,64 103,64 C108.688137,64 113.760039,61.361584 117.058648,57.241807 L117.058646,57.24181 Z M51.058646,57.24181 C48.932747,62.941114 43.440376,67 37,67 C30.559624,67 25.067253,62.941114 22.941354,57.24181 C26.239961,61.361584 31.311863,64 37,64 C42.688137,64 47.760039,61.361584 51.058648,57.241807 L51.058646,57.24181 Z M70,140 C108.659934,140 140,108.659934 140,70 C140,31.340066 108.659934,0 70,0 C31.340066,0 0,31.340066 0,70 C0,108.659934 31.340066,140 70,140 Z M37,60 C45.284272,60 52,53.284272 52,45 C52,36.715728 45.284272,30 37,30 C28.715728,30 22,36.715728 22,45 C22,53.284272 28.715728,60 37,60 Z M103,60 C111.284272,60 118,53.284272 118,45 C118,36.715728 111.284272,30 103,30 C94.715728,30 88,36.715728 88,45 C88,53.284272 94.715728,60 103,60 Z" id="path-26"></path>
            </g>
            <g id="Oval-98-copy-3" transform="translate(167.000000, 681.000000)">
                <g id="path-27-link" fill="#000000">
                    <path d="M119.627248,119.367364 C106.949622,132.111311 89.396062,140 70,140 C31.340066,140 0,108.659934 0,70 C0,31.340066 31.340066,0 70,0 C89.396062,0 106.949622,7.888689 119.627248,20.632636 L70.259885,70 L119.627248,119.367364 L119.627248,119.367364 Z M80,40 C85.522848,40 90,35.522848 90,30 C90,24.477152 85.522848,20 80,20 C74.477152,20 70,24.477152 70,30 C70,35.522848 74.477152,40 80,40 Z" id="path-27"></path>
                </g>
                <path d="M119.627248,119.367364 C106.949622,132.111311 89.396062,140 70,140 C31.340066,140 0,108.659934 0,70 C0,31.340066 31.340066,0 70,0 C89.396062,0 106.949622,7.888689 119.627248,20.632636 L70.259885,70 L119.627248,119.367364 L119.627248,119.367364 Z M80,40 C85.522848,40 90,35.522848 90,30 C90,24.477152 85.522848,20 80,20 C74.477152,20 70,24.477152 70,30 C70,35.522848 74.477152,40 80,40 Z" id="path-27"></path>
            </g>
            <g id=":#" transform="translate(807.000000, 341.000000)">
                <g id="path-28-link" fill="#000000">
                    <path d="M35,113.802233 L35,115.009222 C35,115.549025 34.556414,116 34.009222,116 L31.60334,116 L31.60334,116 C39.83542,124.435744 53.958832,130 70,130 C86.041168,130 100.16458,124.435744 108.39666,116 L108.39666,116 L106.990778,116 C106.450975,116 106,115.556414 106,115.009222 L106,113.729588 C104.355255,113.98403 102.684708,114.235301 101,114.480627 L101,117.009222 C101,117.549025 100.556414,118 100.009222,118 L95.990778,118 C95.450975,118 95,117.556414 95,117.009222 L95,115.318601 C93.298863,115.545355 91.629951,115.757951 90,115.95478 L90,118.009222 C90,118.549025 89.556414,119 89.009222,119 L84.990778,119 C84.450975,119 84,118.556414 84,118.009222 L84,116.624209 C82.247931,116.801721 80.57918,116.953111 79,117.076853 L79,119.009222 C79,119.549025 78.556414,120 78.009222,120 L73.990778,120 C73.450975,120 73,119.556414 73,119.009222 L73,117.42686 C72.026651,117.459791 71.106644,117.476562 70.242481,117.476562 C69.533471,117.476562 68.785495,117.465037 68,117.442336 L68,119.009222 C68,119.549025 67.556414,120 67.009222,120 L62.990778,120 C62.450975,120 62,119.556414 62,119.009222 L62,117.112397 C60.425027,116.99262 58.756168,116.844358 57,116.669198 L57,118.009222 C57,118.549025 56.556414,119 56.009222,119 L51.990778,119 C51.450975,119 51,118.556414 51,118.009222 L51,116.008026 C49.371692,115.813433 47.702726,115.602847 46,115.377898 L46,117.009222 C46,117.549025 45.556414,118 45.009222,118 L40.990778,118 C40.450975,118 40,117.556414 40,117.009222 L40,114.54702 C38.317163,114.303982 36.646632,114.054809 35,113.802233 Z M35,112.790517 L35,110.990778 C35,110.443586 34.549025,110 34.009222,110 L29.990778,110 C29.443586,110 29,110.450975 29,110.990778 L29,111.837728 C28.687851,111.786562 28.382466,111.73625 28.08412,111.686855 C25.68801,108.105856 24.261799,104.163401 24.03269,100.013458 C24.093825,100.024189 24.171382,100.037758 24.265012,100.054078 C24.553174,100.104305 24.890363,100.162554 25.273742,100.228158 C26.368804,100.415544 27.614581,100.624323 28.988386,100.849149 C28.992257,100.849782 28.996128,100.850416 29,100.85105 L29,103.009222 C29,103.556414 29.450975,104 29.990778,104 L34.009222,104 C34.556414,104 35,103.549025 35,103.009222 L35,101.802233 C36.646632,102.054809 38.317163,102.303982 40,102.54702 L40,105.009222 C40,105.556414 40.450975,106 40.990778,106 L45.009222,106 C45.556414,106 46,105.549025 46,105.009222 L46,103.377898 C47.702726,103.602847 49.371692,103.813433 51,104.008026 L51,106.009222 C51,106.556414 51.450975,107 51.990778,107 L56.009222,107 C56.556414,107 57,106.549025 57,106.009222 L57,104.669198 C58.756168,104.844358 60.425027,104.99262 62,105.112397 L62,107.009222 C62,107.556414 62.450975,108 62.990778,108 L67.009222,108 C67.556414,108 68,107.549025 68,107.009222 L68,105.442336 C68.785495,105.465037 69.533471,105.476562 70.242481,105.476562 C71.106644,105.476562 72.026651,105.459791 73,105.42686 L73,107.009222 C73,107.556414 73.450975,108 73.990778,108 L78.009222,108 C78.556414,108 79,107.549025 79,107.009222 L79,105.076853 C80.57918,104.953111 82.247931,104.801721 84,104.624209 L84,106.009222 C84,106.556414 84.450975,107 84.990778,107 L89.009222,107 C89.556414,107 90,106.549025 90,106.009222 L90,103.95478 C91.629951,103.757951 93.298863,103.545355 95,103.318601 L95,105.009222 C95,105.556414 95.450975,106 95.990778,106 L100.009222,106 C100.556414,106 101,105.549025 101,105.009222 L101,102.480627 C102.684708,102.235301 104.355255,101.98403 106,101.729588 L106,103.009222 C106,103.556414 106.450975,104 106.990778,104 L111.009222,104 C111.556414,104 112,103.549025 112,103.009222 L112,100.769959 C113.179398,100.57515 114.257272,100.393306 115.218238,100.228091 C115.489964,100.181375 115.738354,100.138387 115.962394,100.09937 L115.962394,100.09937 C115.721353,104.169051 114.328981,108.037893 112,111.560386 L112,110.990778 C112,110.443586 111.549025,110 111.009222,110 L106.990778,110 C106.443586,110 106,110.450975 106,110.990778 L106,112.717671 C104.355635,112.972499 102.685051,113.224227 101,113.470061 L101,112.990778 C101,112.443586 100.549025,112 100.009222,112 L95.990778,112 C95.443586,112 95,112.450975 95,112.990778 L95,114.309736 C93.298827,114.537006 91.629894,114.750131 90,114.947495 L90,113.990778 C90,113.443586 89.549025,113 89.009222,113 L84.990778,113 C84.443586,113 84,113.450975 84,113.990778 L84,115.619046 C82.247196,115.797301 80.578347,115.94937 79,116.073732 L79,114.990778 C79,114.443586 78.549025,114 78.009222,114 L73.990778,114 C73.443586,114 73,114.450975 73,114.990778 L73,116.42628 C72.025354,116.459595 71.105294,116.476562 70.242481,116.476562 C69.534443,116.476562 68.786437,116.464895 68,116.441914 L68,114.990778 C68,114.443586 67.549025,114 67.009222,114 L62.990778,114 C62.443586,114 62,114.450975 62,114.990778 L62,116.109454 C60.42593,115.989054 58.756967,115.840103 57,115.664188 L57,113.990778 C57,113.443586 56.549025,113 56.009222,113 L51.990778,113 C51.443586,113 51,113.450975 51,113.990778 L51,115.00089 C49.371751,114.805764 47.702763,114.594651 46,114.369189 L46,112.990778 C46,112.443586 45.549025,112 45.009222,112 L40.990778,112 C40.443586,112 40,112.450975 40,112.990778 L40,113.536625 C38.316837,113.293092 36.64627,113.043471 35,112.790517 Z M29,112.85105 L29,112.975782 C28.964377,112.92847 28.928928,112.881089 28.893652,112.833638 C28.925162,112.8388 28.95674,112.84397 28.988386,112.849149 C28.992257,112.849782 28.996128,112.850416 29,112.85105 Z M115.998544,99.077941 C115.999514,98.994456 116,98.910893 116,98.827253 C116,98.827253 95.4051,90 70,90 C44.5949,90 24,98.827253 24,98.827253 C24,99.035095 24.003002,99.242462 24.008977,99.449335 L24.087233,99.007668 C24.146936,99.018247 24.264592,99.038928 24.436723,99.068931 C24.723884,99.118983 25.060058,99.177057 25.442409,99.242485 C26.495198,99.422637 27.687831,99.622646 29,99.837728 L29,98.990778 C29,98.450975 29.443586,98 29.990778,98 L34.009222,98 C34.549025,98 35,98.443586 35,98.990778 L35,100.790517 C36.64627,101.043471 38.316837,101.293092 40,101.536625 L40,100.990778 C40,100.450975 40.443586,100 40.990778,100 L45.009222,100 C45.549025,100 46,100.443586 46,100.990778 L46,102.369189 C47.702763,102.594651 49.371751,102.805764 51,103.00089 L51,101.990778 C51,101.450975 51.443586,101 51.990778,101 L56.009222,101 C56.549025,101 57,101.443586 57,101.990778 L57,103.664188 C58.756967,103.840103 60.42593,103.989054 62,104.109454 L62,102.990778 C62,102.450975 62.443586,102 62.990778,102 L67.009222,102 C67.549025,102 68,102.443586 68,102.990778 L68,104.441914 C68.786437,104.464895 69.534443,104.476562 70.242481,104.476562 C71.105294,104.476562 72.025354,104.459595 73,104.42628 L73,102.990778 C73,102.450975 73.443586,102 73.990778,102 L78.009222,102 C78.549025,102 79,102.443586 79,102.990778 L79,104.073732 C80.578347,103.94937 82.247196,103.797301 84,103.619046 L84,101.990778 C84,101.450975 84.443586,101 84.990778,101 L89.009222,101 C89.549025,101 90,101.443586 90,101.990778 L90,102.947495 C91.629894,102.750131 93.298827,102.537006 95,102.309736 L95,100.990778 C95,100.450975 95.443586,100 95.990778,100 L100.009222,100 C100.549025,100 101,100.443586 101,100.990778 L101,101.470061 C102.685051,101.224227 104.355635,100.972499 106,100.717671 L106,98.990778 C106,98.450975 106.443586,98 106.990778,98 L111.009222,98 C111.549025,98 112,98.443586 112,98.990778 L112,99.756385 C113.113644,99.572103 114.134362,99.399766 115.048798,99.242551 C115.406902,99.180984 115.724264,99.125928 115.998544,99.077941 L115.998544,99.077941 Z M70,140 C108.659934,140 140,108.659934 140,70 C140,31.340066 108.659934,0 70,0 C31.340066,0 0,31.340066 0,70 C0,108.659934 31.340066,140 70,140 Z M35,60 C43.284272,60 50,53.284272 50,45 C50,36.715728 43.284272,30 35,30 C26.715728,30 20,36.715728 20,45 C20,53.284272 26.715728,60 35,60 Z M101,60 C109.284272,60 116,53.284272 116,45 C116,36.715728 109.284272,30 101,30 C92.715728,30 86,36.715728 86,45 C86,53.284272 92.715728,60 101,60 Z" id="path-28"></path>
                </g>
                <path d="M35,113.802233 L35,115.009222 C35,115.549025 34.556414,116 34.009222,116 L31.60334,116 L31.60334,116 C39.83542,124.435744 53.958832,130 70,130 C86.041168,130 100.16458,124.435744 108.39666,116 L108.39666,116 L106.990778,116 C106.450975,116 106,115.556414 106,115.009222 L106,113.729588 C104.355255,113.98403 102.684708,114.235301 101,114.480627 L101,117.009222 C101,117.549025 100.556414,118 100.009222,118 L95.990778,118 C95.450975,118 95,117.556414 95,117.009222 L95,115.318601 C93.298863,115.545355 91.629951,115.757951 90,115.95478 L90,118.009222 C90,118.549025 89.556414,119 89.009222,119 L84.990778,119 C84.450975,119 84,118.556414 84,118.009222 L84,116.624209 C82.247931,116.801721 80.57918,116.953111 79,117.076853 L79,119.009222 C79,119.549025 78.556414,120 78.009222,120 L73.990778,120 C73.450975,120 73,119.556414 73,119.009222 L73,117.42686 C72.026651,117.459791 71.106644,117.476562 70.242481,117.476562 C69.533471,117.476562 68.785495,117.465037 68,117.442336 L68,119.009222 C68,119.549025 67.556414,120 67.009222,120 L62.990778,120 C62.450975,120 62,119.556414 62,119.009222 L62,117.112397 C60.425027,116.99262 58.756168,116.844358 57,116.669198 L57,118.009222 C57,118.549025 56.556414,119 56.009222,119 L51.990778,119 C51.450975,119 51,118.556414 51,118.009222 L51,116.008026 C49.371692,115.813433 47.702726,115.602847 46,115.377898 L46,117.009222 C46,117.549025 45.556414,118 45.009222,118 L40.990778,118 C40.450975,118 40,117.556414 40,117.009222 L40,114.54702 C38.317163,114.303982 36.646632,114.054809 35,113.802233 Z M35,112.790517 L35,110.990778 C35,110.443586 34.549025,110 34.009222,110 L29.990778,110 C29.443586,110 29,110.450975 29,110.990778 L29,111.837728 C28.687851,111.786562 28.382466,111.73625 28.08412,111.686855 C25.68801,108.105856 24.261799,104.163401 24.03269,100.013458 C24.093825,100.024189 24.171382,100.037758 24.265012,100.054078 C24.553174,100.104305 24.890363,100.162554 25.273742,100.228158 C26.368804,100.415544 27.614581,100.624323 28.988386,100.849149 C28.992257,100.849782 28.996128,100.850416 29,100.85105 L29,103.009222 C29,103.556414 29.450975,104 29.990778,104 L34.009222,104 C34.556414,104 35,103.549025 35,103.009222 L35,101.802233 C36.646632,102.054809 38.317163,102.303982 40,102.54702 L40,105.009222 C40,105.556414 40.450975,106 40.990778,106 L45.009222,106 C45.556414,106 46,105.549025 46,105.009222 L46,103.377898 C47.702726,103.602847 49.371692,103.813433 51,104.008026 L51,106.009222 C51,106.556414 51.450975,107 51.990778,107 L56.009222,107 C56.556414,107 57,106.549025 57,106.009222 L57,104.669198 C58.756168,104.844358 60.425027,104.99262 62,105.112397 L62,107.009222 C62,107.556414 62.450975,108 62.990778,108 L67.009222,108 C67.556414,108 68,107.549025 68,107.009222 L68,105.442336 C68.785495,105.465037 69.533471,105.476562 70.242481,105.476562 C71.106644,105.476562 72.026651,105.459791 73,105.42686 L73,107.009222 C73,107.556414 73.450975,108 73.990778,108 L78.009222,108 C78.556414,108 79,107.549025 79,107.009222 L79,105.076853 C80.57918,104.953111 82.247931,104.801721 84,104.624209 L84,106.009222 C84,106.556414 84.450975,107 84.990778,107 L89.009222,107 C89.556414,107 90,106.549025 90,106.009222 L90,103.95478 C91.629951,103.757951 93.298863,103.545355 95,103.318601 L95,105.009222 C95,105.556414 95.450975,106 95.990778,106 L100.009222,106 C100.556414,106 101,105.549025 101,105.009222 L101,102.480627 C102.684708,102.235301 104.355255,101.98403 106,101.729588 L106,103.009222 C106,103.556414 106.450975,104 106.990778,104 L111.009222,104 C111.556414,104 112,103.549025 112,103.009222 L112,100.769959 C113.179398,100.57515 114.257272,100.393306 115.218238,100.228091 C115.489964,100.181375 115.738354,100.138387 115.962394,100.09937 L115.962394,100.09937 C115.721353,104.169051 114.328981,108.037893 112,111.560386 L112,110.990778 C112,110.443586 111.549025,110 111.009222,110 L106.990778,110 C106.443586,110 106,110.450975 106,110.990778 L106,112.717671 C104.355635,112.972499 102.685051,113.224227 101,113.470061 L101,112.990778 C101,112.443586 100.549025,112 100.009222,112 L95.990778,112 C95.443586,112 95,112.450975 95,112.990778 L95,114.309736 C93.298827,114.537006 91.629894,114.750131 90,114.947495 L90,113.990778 C90,113.443586 89.549025,113 89.009222,113 L84.990778,113 C84.443586,113 84,113.450975 84,113.990778 L84,115.619046 C82.247196,115.797301 80.578347,115.94937 79,116.073732 L79,114.990778 C79,114.443586 78.549025,114 78.009222,114 L73.990778,114 C73.443586,114 73,114.450975 73,114.990778 L73,116.42628 C72.025354,116.459595 71.105294,116.476562 70.242481,116.476562 C69.534443,116.476562 68.786437,116.464895 68,116.441914 L68,114.990778 C68,114.443586 67.549025,114 67.009222,114 L62.990778,114 C62.443586,114 62,114.450975 62,114.990778 L62,116.109454 C60.42593,115.989054 58.756967,115.840103 57,115.664188 L57,113.990778 C57,113.443586 56.549025,113 56.009222,113 L51.990778,113 C51.443586,113 51,113.450975 51,113.990778 L51,115.00089 C49.371751,114.805764 47.702763,114.594651 46,114.369189 L46,112.990778 C46,112.443586 45.549025,112 45.009222,112 L40.990778,112 C40.443586,112 40,112.450975 40,112.990778 L40,113.536625 C38.316837,113.293092 36.64627,113.043471 35,112.790517 Z M29,112.85105 L29,112.975782 C28.964377,112.92847 28.928928,112.881089 28.893652,112.833638 C28.925162,112.8388 28.95674,112.84397 28.988386,112.849149 C28.992257,112.849782 28.996128,112.850416 29,112.85105 Z M115.998544,99.077941 C115.999514,98.994456 116,98.910893 116,98.827253 C116,98.827253 95.4051,90 70,90 C44.5949,90 24,98.827253 24,98.827253 C24,99.035095 24.003002,99.242462 24.008977,99.449335 L24.087233,99.007668 C24.146936,99.018247 24.264592,99.038928 24.436723,99.068931 C24.723884,99.118983 25.060058,99.177057 25.442409,99.242485 C26.495198,99.422637 27.687831,99.622646 29,99.837728 L29,98.990778 C29,98.450975 29.443586,98 29.990778,98 L34.009222,98 C34.549025,98 35,98.443586 35,98.990778 L35,100.790517 C36.64627,101.043471 38.316837,101.293092 40,101.536625 L40,100.990778 C40,100.450975 40.443586,100 40.990778,100 L45.009222,100 C45.549025,100 46,100.443586 46,100.990778 L46,102.369189 C47.702763,102.594651 49.371751,102.805764 51,103.00089 L51,101.990778 C51,101.450975 51.443586,101 51.990778,101 L56.009222,101 C56.549025,101 57,101.443586 57,101.990778 L57,103.664188 C58.756967,103.840103 60.42593,103.989054 62,104.109454 L62,102.990778 C62,102.450975 62.443586,102 62.990778,102 L67.009222,102 C67.549025,102 68,102.443586 68,102.990778 L68,104.441914 C68.786437,104.464895 69.534443,104.476562 70.242481,104.476562 C71.105294,104.476562 72.025354,104.459595 73,104.42628 L73,102.990778 C73,102.450975 73.443586,102 73.990778,102 L78.009222,102 C78.549025,102 79,102.443586 79,102.990778 L79,104.073732 C80.578347,103.94937 82.247196,103.797301 84,103.619046 L84,101.990778 C84,101.450975 84.443586,101 84.990778,101 L89.009222,101 C89.549025,101 90,101.443586 90,101.990778 L90,102.947495 C91.629894,102.750131 93.298827,102.537006 95,102.309736 L95,100.990778 C95,100.450975 95.443586,100 95.990778,100 L100.009222,100 C100.549025,100 101,100.443586 101,100.990778 L101,101.470061 C102.685051,101.224227 104.355635,100.972499 106,100.717671 L106,98.990778 C106,98.450975 106.443586,98 106.990778,98 L111.009222,98 C111.549025,98 112,98.443586 112,98.990778 L112,99.756385 C113.113644,99.572103 114.134362,99.399766 115.048798,99.242551 C115.406902,99.180984 115.724264,99.125928 115.998544,99.077941 L115.998544,99.077941 Z M70,140 C108.659934,140 140,108.659934 140,70 C140,31.340066 108.659934,0 70,0 C31.340066,0 0,31.340066 0,70 C0,108.659934 31.340066,140 70,140 Z M35,60 C43.284272,60 50,53.284272 50,45 C50,36.715728 43.284272,30 35,30 C26.715728,30 20,36.715728 20,45 C20,53.284272 26.715728,60 35,60 Z M101,60 C109.284272,60 116,53.284272 116,45 C116,36.715728 109.284272,30 101,30 C92.715728,30 86,36.715728 86,45 C86,53.284272 92.715728,60 101,60 Z" id="path-28"></path>
            </g>
        </g>
    </g>
</svg>
